<?xml version="1.0" encoding="UTF-8" standalone="no"?>
<svg
   xmlns:dc="http://purl.org/dc/elements/1.1/"
   xmlns:cc="http://creativecommons.org/ns#"
   xmlns:rdf="http://www.w3.org/1999/02/22-rdf-syntax-ns#"
   xmlns:svg="http://www.w3.org/2000/svg"
   xmlns="http://www.w3.org/2000/svg"
   viewBox="0 0 870.71997 421.43997"
   height="421.43997"
   width="870.71997"
   xml:space="preserve"
   id="svg2"
   version="1.1"><metadata
     id="metadata8"><rdf:RDF><cc:Work
         rdf:about=""><dc:format>image/svg+xml</dc:format><dc:type
           rdf:resource="http://purl.org/dc/dcmitype/StillImage" /></cc:Work></rdf:RDF></metadata><defs
     id="defs6" /><g
     transform="matrix(1.3333333,0,0,1.3333333,0,7.8693329e-6)"
     id="g10"><g
       id="g12"><g
         id="g14"><path
           id="path16"
           style="fill:#ffffff;fill-opacity:1;fill-rule:nonzero;stroke:#000000;stroke-width:0.76558602;stroke-linecap:butt;stroke-linejoin:miter;stroke-miterlimit:4;stroke-dasharray:none;stroke-opacity:1"
           d="m 151.809,38.812 c 0,1.008 -0.051,2.012 -0.149,3.012 -0.098,1.004 -0.246,2 -0.445,2.988 -0.195,0.985 -0.438,1.961 -0.731,2.926 -0.293,0.965 -0.632,1.91 -1.015,2.84 -0.387,0.93 -0.817,1.84 -1.293,2.727 -0.473,0.89 -0.992,1.754 -1.551,2.59 -0.559,0.835 -1.156,1.644 -1.797,2.421 -0.64,0.782 -1.312,1.524 -2.027,2.239 -0.711,0.711 -1.457,1.386 -2.235,2.027 -0.777,0.637 -1.586,1.234 -2.425,1.797 -0.836,0.559 -1.7,1.074 -2.586,1.551 -0.887,0.472 -1.797,0.902 -2.727,1.289 -0.933,0.386 -1.879,0.722 -2.844,1.015 -0.961,0.293 -1.937,0.539 -2.925,0.735 -0.989,0.195 -1.985,0.343 -2.985,0.441 -1.004,0.102 -2.008,0.149 -3.015,0.149 -1.004,0 -2.012,-0.047 -3.012,-0.149 -1.004,-0.098 -1.996,-0.246 -2.985,-0.441 -0.988,-0.196 -1.964,-0.442 -2.929,-0.735 -0.961,-0.293 -1.91,-0.629 -2.84,-1.015 -0.93,-0.387 -1.84,-0.817 -2.727,-1.289 -0.886,-0.477 -1.75,-0.992 -2.589,-1.551 -0.836,-0.563 -1.645,-1.16 -2.422,-1.797 -0.778,-0.641 -1.524,-1.316 -2.235,-2.027 -0.715,-0.715 -1.39,-1.457 -2.027,-2.239 -0.641,-0.777 -1.238,-1.586 -1.797,-2.421 -0.562,-0.836 -1.078,-1.7 -1.551,-2.59 -0.476,-0.887 -0.906,-1.797 -1.293,-2.727 -0.382,-0.93 -0.722,-1.875 -1.015,-2.84 -0.293,-0.965 -0.535,-1.941 -0.735,-2.926 -0.195,-0.988 -0.343,-1.984 -0.441,-2.988 -0.098,-1 -0.149,-2.004 -0.149,-3.012 0,-1.007 0.051,-2.011 0.149,-3.015 0.098,-1 0.246,-1.996 0.441,-2.985 0.2,-0.988 0.442,-1.96 0.735,-2.925 0.293,-0.965 0.633,-1.91 1.015,-2.84 0.387,-0.93 0.817,-1.84 1.293,-2.731 0.473,-0.886 0.989,-1.75 1.551,-2.586 0.559,-0.835 1.156,-1.644 1.797,-2.425 0.637,-0.778 1.312,-1.524 2.027,-2.235 0.711,-0.711 1.457,-1.386 2.235,-2.027 0.777,-0.637 1.586,-1.238 2.422,-1.797 0.839,-0.558 1.703,-1.074 2.589,-1.551 0.887,-0.472 1.797,-0.906 2.727,-1.289 0.93,-0.386 1.879,-0.726 2.84,-1.015 0.965,-0.293 1.941,-0.539 2.929,-0.735 0.989,-0.195 1.981,-0.344 2.985,-0.441 1,-0.102 2.008,-0.149 3.012,-0.149 1.007,0 2.011,0.047 3.015,0.149 1,0.097 1.996,0.246 2.985,0.441 0.988,0.196 1.964,0.442 2.925,0.735 0.965,0.289 1.911,0.629 2.844,1.015 0.93,0.383 1.84,0.817 2.727,1.289 0.886,0.477 1.75,0.993 2.586,1.551 0.839,0.559 1.648,1.16 2.425,1.797 0.778,0.641 1.524,1.316 2.235,2.027 0.715,0.711 1.387,1.457 2.027,2.235 0.641,0.781 1.238,1.59 1.797,2.425 0.559,0.836 1.078,1.7 1.551,2.586 0.476,0.891 0.906,1.801 1.293,2.731 0.383,0.93 0.722,1.875 1.015,2.84 0.293,0.965 0.536,1.937 0.731,2.925 0.199,0.989 0.347,1.985 0.445,2.985 0.098,1.004 0.149,2.008 0.149,3.015 z" /></g><path
         id="path18"
         style="fill:#000000;fill-opacity:1;fill-rule:nonzero;stroke:none"
         d="m 111.469,39.492 1.125,-0.187 c 0.07,0.461 0.25,0.808 0.531,1.047 0.289,0.242 0.703,0.359 1.234,0.359 0.52,0 0.907,-0.102 1.157,-0.313 0.257,-0.218 0.39,-0.472 0.39,-0.765 0,-0.258 -0.109,-0.461 -0.328,-0.61 -0.168,-0.101 -0.562,-0.234 -1.187,-0.39 -0.836,-0.207 -1.418,-0.391 -1.75,-0.547 -0.325,-0.156 -0.571,-0.367 -0.735,-0.641 -0.168,-0.281 -0.25,-0.582 -0.25,-0.906 0,-0.301 0.067,-0.582 0.203,-0.844 0.133,-0.257 0.321,-0.472 0.563,-0.64 0.187,-0.133 0.43,-0.243 0.734,-0.328 0.313,-0.094 0.645,-0.141 1,-0.141 0.532,0 0.992,0.078 1.391,0.234 0.406,0.149 0.703,0.352 0.891,0.61 0.187,0.261 0.316,0.609 0.39,1.047 l -1.109,0.156 c -0.055,-0.344 -0.203,-0.613 -0.453,-0.813 -0.243,-0.195 -0.586,-0.297 -1.032,-0.297 -0.531,0 -0.914,0.09 -1.14,0.266 -0.219,0.18 -0.328,0.383 -0.328,0.609 0,0.149 0.046,0.282 0.14,0.407 0.094,0.125 0.239,0.226 0.438,0.297 0.113,0.043 0.453,0.14 1.015,0.296 0.813,0.219 1.379,0.399 1.703,0.532 0.321,0.136 0.571,0.34 0.75,0.609 0.188,0.262 0.282,0.59 0.282,0.984 0,0.375 -0.117,0.735 -0.344,1.079 -0.219,0.336 -0.543,0.593 -0.969,0.781 -0.418,0.187 -0.89,0.281 -1.422,0.281 -0.875,0 -1.547,-0.18 -2.015,-0.547 -0.461,-0.363 -0.75,-0.906 -0.875,-1.625 z" /><path
         id="path20"
         style="fill:#000000;fill-opacity:1;fill-rule:nonzero;stroke:none"
         d="m 120.41,44.023 0.141,0.844 c -0.274,0.063 -0.516,0.094 -0.735,0.094 -0.343,0 -0.617,-0.055 -0.812,-0.156 -0.188,-0.114 -0.324,-0.258 -0.406,-0.438 -0.075,-0.187 -0.11,-0.566 -0.11,-1.14 v -3.25 h -0.703 v -0.735 h 0.703 v -1.406 l 0.953,-0.578 v 1.984 h 0.969 v 0.735 h -0.969 v 3.312 c 0,0.273 0.016,0.449 0.047,0.531 0.039,0.075 0.098,0.137 0.172,0.188 0.07,0.043 0.18,0.062 0.328,0.062 0.102,0 0.242,-0.015 0.422,-0.047 z" /><path
         id="path22"
         style="fill:#000000;fill-opacity:1;fill-rule:nonzero;stroke:none"
         d="m 120.965,41.586 h 2.938 v 0.953 h -2.938 z" /><path
         id="path24"
         style="fill:#000000;fill-opacity:1;fill-rule:nonzero;stroke:none"
         d="m 128.309,44.883 h -0.969 v -6.094 c -0.231,0.219 -0.531,0.438 -0.906,0.656 -0.375,0.219 -0.711,0.383 -1,0.485 v -0.922 c 0.531,-0.25 0.992,-0.551 1.39,-0.906 0.406,-0.364 0.692,-0.711 0.86,-1.047 h 0.625 z" /><g
         id="g26"><path
           id="path28"
           style="fill:#ffffff;fill-opacity:1;fill-rule:nonzero;stroke:#000000;stroke-width:0.76558602;stroke-linecap:butt;stroke-linejoin:miter;stroke-miterlimit:4;stroke-dasharray:none;stroke-opacity:1"
           d="m 319.379,38.812 c 0,1.008 -0.047,2.012 -0.145,3.012 -0.101,1.004 -0.246,2 -0.445,2.988 -0.195,0.985 -0.441,1.961 -0.73,2.926 -0.293,0.965 -0.633,1.91 -1.02,2.84 -0.383,0.93 -0.812,1.84 -1.289,2.727 -0.473,0.89 -0.992,1.754 -1.551,2.59 -0.558,0.835 -1.16,1.644 -1.797,2.421 -0.64,0.782 -1.316,1.524 -2.027,2.239 -0.711,0.711 -1.457,1.386 -2.234,2.027 -0.782,0.637 -1.586,1.234 -2.426,1.797 -0.836,0.559 -1.699,1.074 -2.586,1.551 -0.891,0.472 -1.797,0.902 -2.731,1.289 -0.929,0.386 -1.875,0.722 -2.839,1.015 -0.965,0.293 -1.938,0.539 -2.926,0.735 -0.988,0.195 -1.985,0.343 -2.985,0.441 -1.003,0.102 -2.007,0.149 -3.015,0.149 -1.008,0 -2.012,-0.047 -3.012,-0.149 -1.004,-0.098 -2,-0.246 -2.984,-0.441 -0.989,-0.196 -1.965,-0.442 -2.93,-0.735 -0.961,-0.293 -1.91,-0.629 -2.84,-1.015 -0.929,-0.387 -1.84,-0.817 -2.726,-1.289 -0.891,-0.477 -1.754,-0.992 -2.59,-1.551 -0.836,-0.563 -1.645,-1.16 -2.422,-1.797 -0.781,-0.641 -1.524,-1.316 -2.238,-2.027 -0.711,-0.715 -1.387,-1.457 -2.024,-2.239 -0.64,-0.777 -1.238,-1.586 -1.801,-2.421 -0.558,-0.836 -1.074,-1.7 -1.55,-2.59 -0.473,-0.887 -0.903,-1.797 -1.289,-2.727 -0.387,-0.93 -0.723,-1.875 -1.016,-2.84 -0.293,-0.965 -0.539,-1.941 -0.734,-2.926 -0.196,-0.988 -0.344,-1.984 -0.442,-2.988 -0.101,-1 -0.148,-2.004 -0.148,-3.012 0,-1.007 0.047,-2.011 0.148,-3.015 0.098,-1 0.246,-1.996 0.442,-2.985 0.195,-0.988 0.441,-1.96 0.734,-2.925 0.293,-0.965 0.629,-1.91 1.016,-2.84 0.386,-0.93 0.816,-1.84 1.289,-2.731 0.476,-0.886 0.992,-1.75 1.55,-2.586 0.563,-0.835 1.161,-1.644 1.801,-2.425 0.637,-0.778 1.313,-1.524 2.024,-2.235 0.714,-0.711 1.457,-1.386 2.238,-2.027 0.777,-0.637 1.586,-1.238 2.422,-1.797 0.836,-0.558 1.699,-1.074 2.59,-1.551 0.886,-0.472 1.797,-0.906 2.726,-1.289 0.93,-0.386 1.879,-0.726 2.84,-1.015 0.965,-0.293 1.941,-0.539 2.93,-0.735 0.984,-0.195 1.98,-0.344 2.984,-0.441 1,-0.102 2.004,-0.149 3.012,-0.149 1.008,0 2.012,0.047 3.015,0.149 1,0.097 1.997,0.246 2.985,0.441 0.988,0.196 1.961,0.442 2.926,0.735 0.964,0.289 1.91,0.629 2.839,1.015 0.934,0.383 1.84,0.817 2.731,1.289 0.887,0.477 1.75,0.993 2.586,1.551 0.84,0.559 1.644,1.16 2.426,1.797 0.777,0.641 1.523,1.316 2.234,2.027 0.711,0.711 1.387,1.457 2.027,2.235 0.637,0.781 1.239,1.59 1.797,2.425 0.559,0.836 1.078,1.7 1.551,2.586 0.477,0.891 0.906,1.801 1.289,2.731 0.387,0.93 0.727,1.875 1.02,2.84 0.289,0.965 0.535,1.937 0.73,2.925 0.199,0.989 0.344,1.985 0.445,2.985 0.098,1.004 0.145,2.008 0.145,3.015 z" /></g><path
         id="path30"
         style="fill:#000000;fill-opacity:1;fill-rule:nonzero;stroke:none"
         d="m 283.883,39.492 1.125,-0.187 c 0.07,0.461 0.25,0.808 0.531,1.047 0.289,0.242 0.703,0.359 1.234,0.359 0.52,0 0.907,-0.102 1.157,-0.313 0.258,-0.218 0.39,-0.472 0.39,-0.765 0,-0.258 -0.109,-0.461 -0.328,-0.61 -0.168,-0.101 -0.562,-0.234 -1.187,-0.39 -0.836,-0.207 -1.418,-0.391 -1.75,-0.547 -0.325,-0.156 -0.571,-0.367 -0.735,-0.641 -0.168,-0.281 -0.25,-0.582 -0.25,-0.906 0,-0.301 0.067,-0.582 0.203,-0.844 0.133,-0.257 0.321,-0.472 0.563,-0.64 0.187,-0.133 0.43,-0.243 0.734,-0.328 0.313,-0.094 0.645,-0.141 1,-0.141 0.532,0 0.992,0.078 1.391,0.234 0.406,0.149 0.703,0.352 0.891,0.61 0.187,0.261 0.316,0.609 0.39,1.047 l -1.109,0.156 c -0.055,-0.344 -0.203,-0.613 -0.453,-0.813 -0.242,-0.195 -0.586,-0.297 -1.032,-0.297 -0.531,0 -0.914,0.09 -1.14,0.266 -0.219,0.18 -0.328,0.383 -0.328,0.609 0,0.149 0.047,0.282 0.14,0.407 0.094,0.125 0.239,0.226 0.438,0.297 0.113,0.043 0.453,0.14 1.015,0.296 0.813,0.219 1.379,0.399 1.704,0.532 0.32,0.136 0.57,0.34 0.75,0.609 0.187,0.262 0.281,0.59 0.281,0.984 0,0.375 -0.117,0.735 -0.344,1.079 -0.219,0.336 -0.543,0.593 -0.969,0.781 -0.418,0.187 -0.89,0.281 -1.422,0.281 -0.875,0 -1.546,-0.18 -2.015,-0.547 -0.461,-0.363 -0.75,-0.906 -0.875,-1.625 z" /><path
         id="path32"
         style="fill:#000000;fill-opacity:1;fill-rule:nonzero;stroke:none"
         d="m 292.82,44.023 0.141,0.844 c -0.273,0.063 -0.516,0.094 -0.734,0.094 -0.344,0 -0.618,-0.055 -0.813,-0.156 -0.187,-0.114 -0.324,-0.258 -0.406,-0.438 -0.074,-0.187 -0.11,-0.566 -0.11,-1.14 v -3.25 h -0.703 v -0.735 h 0.703 v -1.406 l 0.954,-0.578 v 1.984 h 0.968 v 0.735 h -0.968 v 3.312 c 0,0.273 0.015,0.449 0.046,0.531 0.04,0.075 0.098,0.137 0.172,0.188 0.071,0.043 0.18,0.062 0.328,0.062 0.102,0 0.243,-0.015 0.422,-0.047 z" /><g
         id="g34"><path
           id="path36"
           style="fill:#ffffff;fill-opacity:1;fill-rule:nonzero;stroke:#000000;stroke-width:0.76558602;stroke-linecap:butt;stroke-linejoin:miter;stroke-miterlimit:4;stroke-dasharray:none;stroke-opacity:1"
           d="m 481.574,38.812 c 0,1.008 -0.051,2.012 -0.148,3.012 -0.102,1.004 -0.246,2 -0.446,2.988 -0.195,0.985 -0.441,1.961 -0.73,2.926 -0.293,0.965 -0.633,1.91 -1.02,2.84 -0.382,0.93 -0.812,1.84 -1.289,2.727 -0.472,0.89 -0.992,1.754 -1.55,2.59 -0.559,0.835 -1.161,1.644 -1.797,2.421 -0.641,0.782 -1.317,1.524 -2.028,2.239 -0.711,0.711 -1.457,1.386 -2.234,2.027 -0.781,0.637 -1.586,1.234 -2.426,1.797 -0.836,0.559 -1.699,1.074 -2.586,1.551 -0.89,0.472 -1.797,0.902 -2.73,1.289 -0.93,0.386 -1.875,0.722 -2.84,1.015 -0.965,0.293 -1.938,0.539 -2.926,0.735 -0.988,0.195 -1.984,0.343 -2.984,0.441 -1.004,0.102 -2.008,0.149 -3.016,0.149 -1.008,0 -2.012,-0.047 -3.012,-0.149 -1.003,-0.098 -2,-0.246 -2.984,-0.441 -0.988,-0.196 -1.965,-0.442 -2.93,-0.735 -0.96,-0.293 -1.91,-0.629 -2.839,-1.015 -0.93,-0.387 -1.84,-0.817 -2.727,-1.289 -0.891,-0.477 -1.75,-0.992 -2.59,-1.551 -0.836,-0.563 -1.644,-1.16 -2.422,-1.797 -0.781,-0.641 -1.523,-1.316 -2.238,-2.027 -0.711,-0.715 -1.387,-1.457 -2.023,-2.239 -0.641,-0.777 -1.239,-1.586 -1.801,-2.421 -0.559,-0.836 -1.074,-1.7 -1.551,-2.59 -0.473,-0.887 -0.902,-1.797 -1.289,-2.727 -0.387,-0.93 -0.723,-1.875 -1.016,-2.84 -0.293,-0.965 -0.539,-1.941 -0.734,-2.926 -0.195,-0.988 -0.344,-1.984 -0.441,-2.988 -0.098,-1 -0.149,-2.004 -0.149,-3.012 0,-1.007 0.051,-2.011 0.149,-3.015 0.097,-1 0.246,-1.996 0.441,-2.985 0.195,-0.988 0.441,-1.96 0.734,-2.925 0.293,-0.965 0.629,-1.91 1.016,-2.84 0.387,-0.93 0.816,-1.84 1.289,-2.731 0.477,-0.886 0.992,-1.75 1.551,-2.586 0.562,-0.835 1.16,-1.644 1.801,-2.425 0.636,-0.778 1.312,-1.524 2.023,-2.235 0.715,-0.711 1.457,-1.386 2.238,-2.027 0.778,-0.637 1.586,-1.238 2.422,-1.797 0.84,-0.558 1.699,-1.074 2.59,-1.551 0.887,-0.472 1.797,-0.906 2.727,-1.289 0.929,-0.386 1.879,-0.726 2.839,-1.015 0.965,-0.293 1.942,-0.539 2.93,-0.735 0.984,-0.195 1.981,-0.344 2.984,-0.441 1,-0.102 2.004,-0.149 3.012,-0.149 1.008,0 2.012,0.047 3.016,0.149 1,0.097 1.996,0.246 2.984,0.441 0.988,0.196 1.961,0.442 2.926,0.735 0.965,0.289 1.91,0.629 2.84,1.015 0.933,0.383 1.84,0.817 2.73,1.289 0.887,0.477 1.75,0.993 2.586,1.551 0.84,0.559 1.645,1.16 2.426,1.797 0.777,0.641 1.523,1.316 2.234,2.027 0.711,0.711 1.387,1.457 2.028,2.235 0.636,0.781 1.238,1.59 1.797,2.425 0.558,0.836 1.078,1.7 1.55,2.586 0.477,0.891 0.907,1.801 1.289,2.731 0.387,0.93 0.727,1.875 1.02,2.84 0.289,0.965 0.535,1.937 0.73,2.925 0.2,0.989 0.344,1.985 0.446,2.985 0.097,1.004 0.148,2.008 0.148,3.015 z" /></g><path
         id="path38"
         style="fill:#000000;fill-opacity:1;fill-rule:nonzero;stroke:none"
         d="m 439.863,39.492 1.125,-0.187 c 0.071,0.461 0.25,0.808 0.532,1.047 0.289,0.242 0.703,0.359 1.234,0.359 0.519,0 0.906,-0.102 1.156,-0.313 0.258,-0.218 0.391,-0.472 0.391,-0.765 0,-0.258 -0.11,-0.461 -0.328,-0.61 -0.168,-0.101 -0.563,-0.234 -1.188,-0.39 -0.836,-0.207 -1.418,-0.391 -1.75,-0.547 -0.324,-0.156 -0.57,-0.367 -0.734,-0.641 -0.168,-0.281 -0.25,-0.582 -0.25,-0.906 0,-0.301 0.066,-0.582 0.203,-0.844 0.133,-0.257 0.32,-0.472 0.562,-0.64 0.188,-0.133 0.43,-0.243 0.735,-0.328 0.312,-0.094 0.644,-0.141 1,-0.141 0.531,0 0.992,0.078 1.39,0.234 0.407,0.149 0.704,0.352 0.891,0.61 0.188,0.261 0.316,0.609 0.391,1.047 l -1.11,0.156 c -0.054,-0.344 -0.203,-0.613 -0.453,-0.813 -0.242,-0.195 -0.586,-0.297 -1.031,-0.297 -0.531,0 -0.914,0.09 -1.141,0.266 -0.218,0.18 -0.328,0.383 -0.328,0.609 0,0.149 0.047,0.282 0.141,0.407 0.094,0.125 0.238,0.226 0.437,0.297 0.114,0.043 0.453,0.14 1.016,0.296 0.812,0.219 1.379,0.399 1.703,0.532 0.32,0.136 0.57,0.34 0.75,0.609 0.188,0.262 0.281,0.59 0.281,0.984 0,0.375 -0.117,0.735 -0.343,1.079 -0.219,0.336 -0.543,0.593 -0.969,0.781 -0.418,0.187 -0.891,0.281 -1.422,0.281 -0.875,0 -1.547,-0.18 -2.016,-0.547 -0.461,-0.363 -0.75,-0.906 -0.875,-1.625 z" /><path
         id="path40"
         style="fill:#000000;fill-opacity:1;fill-rule:nonzero;stroke:none"
         d="m 448.805,44.023 0.14,0.844 c -0.273,0.063 -0.515,0.094 -0.734,0.094 -0.344,0 -0.617,-0.055 -0.813,-0.156 -0.187,-0.114 -0.324,-0.258 -0.406,-0.438 -0.074,-0.187 -0.109,-0.566 -0.109,-1.14 v -3.25 h -0.703 v -0.735 h 0.703 v -1.406 l 0.953,-0.578 v 1.984 h 0.969 v 0.735 h -0.969 v 3.312 c 0,0.273 0.016,0.449 0.047,0.531 0.039,0.075 0.097,0.137 0.172,0.188 0.07,0.043 0.179,0.062 0.328,0.062 0.101,0 0.242,-0.015 0.422,-0.047 z" /><path
         id="path42"
         style="fill:#000000;fill-opacity:1;fill-rule:nonzero;stroke:none"
         d="m 451.75,43.617 v -2.125 h -2.125 v -0.906 h 2.125 v -2.109 h 0.891 v 2.109 h 2.125 v 0.906 h -2.125 v 2.125 z" /><path
         id="path44"
         style="fill:#000000;fill-opacity:1;fill-rule:nonzero;stroke:none"
         d="m 459.434,44.883 h -0.969 v -6.094 c -0.231,0.219 -0.531,0.438 -0.906,0.656 -0.375,0.219 -0.711,0.383 -1,0.485 v -0.922 c 0.531,-0.25 0.992,-0.551 1.39,-0.906 0.406,-0.364 0.692,-0.711 0.86,-1.047 h 0.625 z" /><g
         id="g46"><path
           id="path48"
           style="fill:#ffffff;fill-opacity:1;fill-rule:nonzero;stroke:#000000;stroke-width:0.76558602;stroke-linecap:butt;stroke-linejoin:miter;stroke-miterlimit:4;stroke-dasharray:none;stroke-opacity:1"
           d="m 644.531,38.812 c 0,1.008 -0.051,2.012 -0.148,3.012 -0.102,1.004 -0.246,2 -0.445,2.988 -0.196,0.985 -0.438,1.961 -0.731,2.926 -0.293,0.965 -0.633,1.91 -1.019,2.84 -0.383,0.93 -0.813,1.84 -1.29,2.727 -0.472,0.89 -0.992,1.754 -1.55,2.59 -0.559,0.835 -1.16,1.644 -1.797,2.421 -0.641,0.782 -1.317,1.524 -2.028,2.239 -0.711,0.711 -1.457,1.386 -2.234,2.027 -0.777,0.637 -1.586,1.234 -2.426,1.797 -0.836,0.559 -1.699,1.074 -2.586,1.551 -0.89,0.472 -1.797,0.902 -2.73,1.289 -0.93,0.386 -1.875,0.722 -2.84,1.015 -0.961,0.293 -1.937,0.539 -2.926,0.735 -0.988,0.195 -1.984,0.343 -2.984,0.441 -1.004,0.102 -2.008,0.149 -3.016,0.149 -1.008,0 -2.011,-0.047 -3.011,-0.149 -1.004,-0.098 -1.997,-0.246 -2.985,-0.441 -0.988,-0.196 -1.965,-0.442 -2.93,-0.735 -0.96,-0.293 -1.91,-0.629 -2.839,-1.015 -0.93,-0.387 -1.84,-0.817 -2.727,-1.289 -0.891,-0.477 -1.75,-0.992 -2.59,-1.551 -0.836,-0.563 -1.644,-1.16 -2.422,-1.797 -0.781,-0.641 -1.523,-1.316 -2.238,-2.027 -0.711,-0.715 -1.387,-1.457 -2.023,-2.239 -0.641,-0.777 -1.239,-1.586 -1.797,-2.421 -0.563,-0.836 -1.078,-1.7 -1.555,-2.59 -0.473,-0.887 -0.902,-1.797 -1.289,-2.727 -0.387,-0.93 -0.723,-1.875 -1.016,-2.84 -0.293,-0.965 -0.535,-1.941 -0.734,-2.926 -0.195,-0.988 -0.344,-1.984 -0.441,-2.988 -0.098,-1 -0.149,-2.004 -0.149,-3.012 0,-1.007 0.051,-2.011 0.149,-3.015 0.097,-1 0.246,-1.996 0.441,-2.985 0.199,-0.988 0.441,-1.96 0.734,-2.925 0.293,-0.965 0.629,-1.91 1.016,-2.84 0.387,-0.93 0.816,-1.84 1.289,-2.731 0.477,-0.886 0.992,-1.75 1.555,-2.586 0.558,-0.835 1.156,-1.644 1.797,-2.425 0.636,-0.778 1.312,-1.524 2.023,-2.235 0.715,-0.711 1.457,-1.386 2.238,-2.027 0.778,-0.637 1.586,-1.238 2.422,-1.797 0.84,-0.558 1.699,-1.074 2.59,-1.551 0.887,-0.472 1.797,-0.906 2.727,-1.289 0.929,-0.386 1.879,-0.726 2.839,-1.015 0.965,-0.293 1.942,-0.539 2.93,-0.735 0.988,-0.195 1.981,-0.344 2.985,-0.441 1,-0.102 2.003,-0.149 3.011,-0.149 1.008,0 2.012,0.047 3.016,0.149 1,0.097 1.996,0.246 2.984,0.441 0.989,0.196 1.965,0.442 2.926,0.735 0.965,0.289 1.91,0.629 2.84,1.015 0.933,0.383 1.84,0.817 2.73,1.289 0.887,0.477 1.75,0.993 2.586,1.551 0.84,0.559 1.649,1.16 2.426,1.797 0.777,0.641 1.523,1.316 2.234,2.027 0.711,0.711 1.387,1.457 2.028,2.235 0.637,0.781 1.238,1.59 1.797,2.425 0.558,0.836 1.078,1.7 1.55,2.586 0.477,0.891 0.907,1.801 1.29,2.731 0.386,0.93 0.726,1.875 1.019,2.84 0.293,0.965 0.535,1.937 0.731,2.925 0.199,0.989 0.343,1.985 0.445,2.985 0.097,1.004 0.148,2.008 0.148,3.015 z" /></g><path
         id="path50"
         style="fill:#000000;fill-opacity:1;fill-rule:nonzero;stroke:none"
         d="m 602.824,39.492 1.125,-0.187 c 0.071,0.461 0.25,0.808 0.531,1.047 0.29,0.242 0.704,0.359 1.235,0.359 0.519,0 0.906,-0.102 1.156,-0.313 0.258,-0.218 0.391,-0.472 0.391,-0.765 0,-0.258 -0.11,-0.461 -0.328,-0.61 -0.168,-0.101 -0.563,-0.234 -1.188,-0.39 -0.836,-0.207 -1.418,-0.391 -1.75,-0.547 -0.324,-0.156 -0.57,-0.367 -0.734,-0.641 -0.168,-0.281 -0.25,-0.582 -0.25,-0.906 0,-0.301 0.066,-0.582 0.203,-0.844 0.133,-0.257 0.32,-0.472 0.562,-0.64 0.188,-0.133 0.43,-0.243 0.735,-0.328 0.312,-0.094 0.644,-0.141 1,-0.141 0.531,0 0.992,0.078 1.39,0.234 0.407,0.149 0.703,0.352 0.891,0.61 0.187,0.261 0.316,0.609 0.391,1.047 l -1.11,0.156 c -0.054,-0.344 -0.203,-0.613 -0.453,-0.813 -0.242,-0.195 -0.586,-0.297 -1.031,-0.297 -0.531,0 -0.914,0.09 -1.141,0.266 -0.219,0.18 -0.328,0.383 -0.328,0.609 0,0.149 0.047,0.282 0.141,0.407 0.093,0.125 0.238,0.226 0.437,0.297 0.113,0.043 0.453,0.14 1.016,0.296 0.812,0.219 1.379,0.399 1.703,0.532 0.32,0.136 0.57,0.34 0.75,0.609 0.187,0.262 0.281,0.59 0.281,0.984 0,0.375 -0.117,0.735 -0.344,1.079 -0.218,0.336 -0.543,0.593 -0.968,0.781 -0.418,0.187 -0.891,0.281 -1.422,0.281 -0.875,0 -1.547,-0.18 -2.016,-0.547 -0.461,-0.363 -0.75,-0.906 -0.875,-1.625 z" /><path
         id="path52"
         style="fill:#000000;fill-opacity:1;fill-rule:nonzero;stroke:none"
         d="m 611.766,44.023 0.14,0.844 c -0.273,0.063 -0.515,0.094 -0.734,0.094 -0.344,0 -0.617,-0.055 -0.813,-0.156 -0.187,-0.114 -0.324,-0.258 -0.406,-0.438 -0.074,-0.187 -0.109,-0.566 -0.109,-1.14 v -3.25 h -0.703 v -0.735 h 0.703 v -1.406 l 0.953,-0.578 v 1.984 h 0.969 v 0.735 h -0.969 v 3.312 c 0,0.273 0.015,0.449 0.047,0.531 0.039,0.075 0.097,0.137 0.172,0.188 0.07,0.043 0.179,0.062 0.328,0.062 0.101,0 0.242,-0.015 0.422,-0.047 z" /><path
         id="path54"
         style="fill:#000000;fill-opacity:1;fill-rule:nonzero;stroke:none"
         d="m 614.711,43.617 v -2.125 h -2.125 v -0.906 h 2.125 v -2.109 h 0.891 v 2.109 h 2.125 v 0.906 h -2.125 v 2.125 z" /><path
         id="path56"
         style="fill:#000000;fill-opacity:1;fill-rule:nonzero;stroke:none"
         d="m 623.816,43.961 v 0.922 h -5.156 c -0.012,-0.227 0.024,-0.453 0.11,-0.672 0.132,-0.344 0.343,-0.688 0.625,-1.031 0.289,-0.344 0.71,-0.735 1.265,-1.172 0.844,-0.696 1.41,-1.25 1.703,-1.656 0.301,-0.407 0.453,-0.79 0.453,-1.157 0,-0.375 -0.136,-0.691 -0.406,-0.953 -0.273,-0.258 -0.625,-0.39 -1.062,-0.39 -0.461,0 -0.828,0.14 -1.11,0.421 -0.273,0.274 -0.406,0.653 -0.406,1.141 l -0.984,-0.109 c 0.062,-0.727 0.312,-1.285 0.75,-1.672 0.445,-0.383 1.039,-0.578 1.781,-0.578 0.738,0 1.328,0.211 1.766,0.625 0.437,0.418 0.656,0.933 0.656,1.547 0,0.304 -0.063,0.605 -0.188,0.906 -0.125,0.305 -0.34,0.621 -0.64,0.953 -0.293,0.336 -0.782,0.793 -1.469,1.375 -0.574,0.48 -0.945,0.809 -1.109,0.984 -0.168,0.168 -0.305,0.34 -0.407,0.516 z" /><g
         id="g58"><path
           id="path60"
           style="fill:none;stroke:#000000;stroke-width:0.76558602;stroke-linecap:butt;stroke-linejoin:miter;stroke-miterlimit:10;stroke-dasharray:none;stroke-opacity:1"
           d="M 151.805,38.812 H 252.988" /></g><g
         id="g62"><path
           id="path64"
           style="fill:#000000;fill-opacity:1;fill-rule:nonzero;stroke:#000000;stroke-width:0.76558602;stroke-linecap:butt;stroke-linejoin:miter;stroke-miterlimit:10;stroke-dasharray:none;stroke-opacity:1"
           d="m 257.027,38.812 -5.382,2.688 1.343,-2.688 -1.343,-2.695 z" /></g><g
         id="g66"><path
           id="path68"
           style="fill:none;stroke:#000000;stroke-width:0.76558602;stroke-linecap:butt;stroke-linejoin:miter;stroke-miterlimit:10;stroke-dasharray:none;stroke-opacity:1"
           d="M 319.379,38.812 H 415.18" /></g><g
         id="g70"><path
           id="path72"
           style="fill:#000000;fill-opacity:1;fill-rule:nonzero;stroke:#000000;stroke-width:0.76558602;stroke-linecap:butt;stroke-linejoin:miter;stroke-miterlimit:10;stroke-dasharray:none;stroke-opacity:1"
           d="m 419.219,38.812 -5.383,2.688 1.344,-2.688 -1.344,-2.695 z" /></g><g
         id="g74"><path
           id="path76"
           style="fill:none;stroke:#000000;stroke-width:0.76558602;stroke-linecap:butt;stroke-linejoin:miter;stroke-miterlimit:10;stroke-dasharray:none;stroke-opacity:1"
           d="m 481.57,38.812 h 96.575" /></g><g
         id="g78"><path
           id="path80"
           style="fill:#000000;fill-opacity:1;fill-rule:nonzero;stroke:#000000;stroke-width:0.76558602;stroke-linecap:butt;stroke-linejoin:miter;stroke-miterlimit:10;stroke-dasharray:none;stroke-opacity:1"
           d="m 582.176,38.812 -5.383,2.688 1.352,-2.688 -1.352,-2.695 z" /></g><g
         id="g82"><path
           id="path84"
           style="fill:#f5f5f5;fill-opacity:1;fill-rule:nonzero;stroke:#666666;stroke-width:0.76558602;stroke-linecap:butt;stroke-linejoin:miter;stroke-miterlimit:4;stroke-dasharray:none;stroke-opacity:1"
           d="m 481.574,174.867 c 0,1.008 -0.051,2.012 -0.148,3.016 -0.102,1.004 -0.246,1.996 -0.446,2.984 -0.195,0.988 -0.441,1.965 -0.73,2.926 -0.293,0.965 -0.633,1.91 -1.02,2.844 -0.382,0.929 -0.812,1.84 -1.289,2.726 -0.472,0.887 -0.992,1.75 -1.55,2.586 -0.559,0.84 -1.161,1.649 -1.797,2.426 -0.641,0.777 -1.317,1.523 -2.028,2.234 -0.711,0.715 -1.457,1.387 -2.234,2.028 -0.781,0.64 -1.586,1.238 -2.426,1.797 -0.836,0.558 -1.699,1.078 -2.586,1.55 -0.89,0.477 -1.797,0.907 -2.73,1.293 -0.93,0.383 -1.875,0.723 -2.84,1.016 -0.965,0.293 -1.938,0.535 -2.926,0.73 -0.988,0.2 -1.984,0.348 -2.984,0.446 -1.004,0.097 -2.008,0.148 -3.016,0.148 -1.008,0 -2.012,-0.051 -3.012,-0.148 -1.003,-0.098 -2,-0.246 -2.984,-0.446 -0.988,-0.195 -1.965,-0.437 -2.93,-0.73 -0.96,-0.293 -1.91,-0.633 -2.839,-1.016 -0.93,-0.386 -1.84,-0.816 -2.727,-1.293 -0.891,-0.472 -1.75,-0.992 -2.59,-1.55 -0.836,-0.559 -1.644,-1.157 -2.422,-1.797 -0.781,-0.641 -1.523,-1.313 -2.238,-2.028 -0.711,-0.711 -1.387,-1.457 -2.023,-2.234 -0.641,-0.777 -1.239,-1.586 -1.801,-2.426 -0.559,-0.836 -1.074,-1.699 -1.551,-2.586 -0.473,-0.886 -0.902,-1.797 -1.289,-2.726 -0.387,-0.934 -0.723,-1.879 -1.016,-2.844 -0.293,-0.961 -0.539,-1.938 -0.734,-2.926 -0.195,-0.988 -0.344,-1.98 -0.441,-2.984 -0.098,-1.004 -0.149,-2.008 -0.149,-3.016 0,-1.004 0.051,-2.012 0.149,-3.012 0.097,-1.003 0.246,-1.996 0.441,-2.984 0.195,-0.988 0.441,-1.965 0.734,-2.926 0.293,-0.965 0.629,-1.914 1.016,-2.843 0.387,-0.93 0.816,-1.84 1.289,-2.727 0.477,-0.887 0.992,-1.75 1.551,-2.59 0.562,-0.836 1.16,-1.644 1.801,-2.422 0.636,-0.777 1.312,-1.523 2.023,-2.234 0.715,-0.715 1.457,-1.391 2.238,-2.027 0.778,-0.641 1.586,-1.239 2.422,-1.797 0.84,-0.563 1.699,-1.078 2.59,-1.551 0.887,-0.477 1.797,-0.906 2.727,-1.293 0.929,-0.383 1.879,-0.723 2.839,-1.016 0.965,-0.293 1.942,-0.535 2.93,-0.734 0.984,-0.195 1.981,-0.344 2.984,-0.441 1,-0.098 2.004,-0.149 3.012,-0.149 1.008,0 2.012,0.051 3.016,0.149 1,0.097 1.996,0.246 2.984,0.441 0.988,0.199 1.961,0.441 2.926,0.734 0.965,0.293 1.91,0.633 2.84,1.016 0.933,0.387 1.84,0.816 2.73,1.293 0.887,0.473 1.75,0.988 2.586,1.551 0.84,0.558 1.645,1.156 2.426,1.797 0.777,0.636 1.523,1.312 2.234,2.027 0.711,0.711 1.387,1.457 2.028,2.234 0.636,0.778 1.238,1.586 1.797,2.422 0.558,0.84 1.078,1.703 1.55,2.59 0.477,0.887 0.907,1.797 1.289,2.727 0.387,0.929 0.727,1.878 1.02,2.843 0.289,0.961 0.535,1.938 0.73,2.926 0.2,0.988 0.344,1.981 0.446,2.984 0.097,1 0.148,2.008 0.148,3.012 z" /></g><path
         id="path86"
         style="fill:#000000;fill-opacity:1;fill-rule:nonzero;stroke:none"
         d="m 439.523,174.176 c 0,-1.25 0.348,-2.176 1.047,-2.781 0.582,-0.5 1.289,-0.75 2.125,-0.75 0.926,0 1.688,0.308 2.282,0.921 0.593,0.606 0.89,1.446 0.89,2.516 0,0.875 -0.133,1.563 -0.39,2.063 -0.262,0.5 -0.641,0.89 -1.141,1.171 -0.5,0.27 -1.047,0.407 -1.641,0.407 -0.949,0 -1.715,-0.301 -2.297,-0.907 -0.586,-0.613 -0.875,-1.492 -0.875,-2.64 z m 1.172,0 c 0,0.875 0.188,1.527 0.563,1.953 0.383,0.43 0.863,0.641 1.437,0.641 0.571,0 1.047,-0.211 1.422,-0.641 0.375,-0.438 0.563,-1.098 0.563,-1.984 0,-0.844 -0.196,-1.477 -0.578,-1.907 -0.375,-0.426 -0.844,-0.64 -1.407,-0.64 -0.574,0 -1.054,0.214 -1.437,0.64 -0.375,0.43 -0.563,1.074 -0.563,1.938 z" /><path
         id="path88"
         style="fill:#000000;fill-opacity:1;fill-rule:nonzero;stroke:none"
         d="m 449.176,180.082 0.14,0.844 c -0.273,0.062 -0.515,0.094 -0.734,0.094 -0.344,0 -0.617,-0.055 -0.812,-0.157 -0.188,-0.113 -0.325,-0.258 -0.407,-0.437 -0.074,-0.188 -0.109,-0.567 -0.109,-1.141 v -3.25 h -0.703 v -0.734 h 0.703 v -1.406 l 0.953,-0.579 v 1.985 h 0.969 v 0.734 h -0.969 v 3.313 c 0,0.273 0.016,0.449 0.047,0.531 0.039,0.074 0.098,0.137 0.172,0.187 0.07,0.043 0.179,0.063 0.328,0.063 0.101,0 0.242,-0.016 0.422,-0.047 z" /><path
         id="path90"
         style="fill:#000000;fill-opacity:1;fill-rule:nonzero;stroke:none"
         d="m 452.121,179.676 v -2.125 h -2.125 v -0.906 h 2.125 v -2.11 h 0.891 v 2.11 h 2.125 v 0.906 h -2.125 v 2.125 z" /><path
         id="path92"
         style="fill:#000000;fill-opacity:1;fill-rule:nonzero;stroke:none"
         d="m 459.809,180.941 h -0.969 v -6.093 c -0.231,0.218 -0.531,0.437 -0.906,0.656 -0.375,0.219 -0.711,0.383 -1,0.484 v -0.922 c 0.531,-0.25 0.992,-0.55 1.39,-0.906 0.406,-0.363 0.692,-0.711 0.86,-1.047 h 0.625 z" /><g
         id="g94"><path
           id="path96"
           style="fill:#f5f5f5;fill-opacity:1;fill-rule:nonzero;stroke:#666666;stroke-width:0.76558602;stroke-linecap:butt;stroke-linejoin:miter;stroke-miterlimit:4;stroke-dasharray:none;stroke-opacity:1"
           d="m 644.531,174.867 c 0,1.008 -0.051,2.012 -0.148,3.016 -0.102,1.004 -0.246,1.996 -0.445,2.984 -0.196,0.988 -0.438,1.965 -0.731,2.926 -0.293,0.965 -0.633,1.91 -1.019,2.844 -0.383,0.929 -0.813,1.84 -1.29,2.726 -0.472,0.887 -0.992,1.75 -1.55,2.586 -0.559,0.84 -1.16,1.649 -1.797,2.426 -0.641,0.777 -1.317,1.523 -2.028,2.234 -0.711,0.715 -1.457,1.387 -2.234,2.028 -0.777,0.64 -1.586,1.238 -2.426,1.797 -0.836,0.558 -1.699,1.078 -2.586,1.55 -0.89,0.477 -1.797,0.907 -2.73,1.293 -0.93,0.383 -1.875,0.723 -2.84,1.016 -0.961,0.293 -1.937,0.535 -2.926,0.73 -0.988,0.2 -1.984,0.348 -2.984,0.446 -1.004,0.097 -2.008,0.148 -3.016,0.148 -1.008,0 -2.011,-0.051 -3.011,-0.148 -1.004,-0.098 -1.997,-0.246 -2.985,-0.446 -0.988,-0.195 -1.965,-0.437 -2.93,-0.73 -0.96,-0.293 -1.91,-0.633 -2.839,-1.016 -0.93,-0.386 -1.84,-0.816 -2.727,-1.293 -0.891,-0.472 -1.75,-0.992 -2.59,-1.55 -0.836,-0.559 -1.644,-1.157 -2.422,-1.797 -0.781,-0.641 -1.523,-1.313 -2.238,-2.028 -0.711,-0.711 -1.387,-1.457 -2.023,-2.234 -0.641,-0.777 -1.239,-1.586 -1.797,-2.426 -0.563,-0.836 -1.078,-1.699 -1.555,-2.586 -0.473,-0.886 -0.902,-1.797 -1.289,-2.726 -0.387,-0.934 -0.723,-1.879 -1.016,-2.844 -0.293,-0.961 -0.535,-1.938 -0.734,-2.926 -0.195,-0.988 -0.344,-1.98 -0.441,-2.984 -0.098,-1.004 -0.149,-2.008 -0.149,-3.016 0,-1.004 0.051,-2.012 0.149,-3.012 0.097,-1.003 0.246,-1.996 0.441,-2.984 0.199,-0.988 0.441,-1.965 0.734,-2.926 0.293,-0.965 0.629,-1.914 1.016,-2.843 0.387,-0.93 0.816,-1.84 1.289,-2.727 0.477,-0.887 0.992,-1.75 1.555,-2.59 0.558,-0.836 1.156,-1.644 1.797,-2.422 0.636,-0.777 1.312,-1.523 2.023,-2.234 0.715,-0.715 1.457,-1.391 2.238,-2.027 0.778,-0.641 1.586,-1.239 2.422,-1.797 0.84,-0.563 1.699,-1.078 2.59,-1.551 0.887,-0.477 1.797,-0.906 2.727,-1.293 0.929,-0.383 1.879,-0.723 2.839,-1.016 0.965,-0.293 1.942,-0.535 2.93,-0.734 0.988,-0.195 1.981,-0.344 2.985,-0.441 1,-0.098 2.003,-0.149 3.011,-0.149 1.008,0 2.012,0.051 3.016,0.149 1,0.097 1.996,0.246 2.984,0.441 0.989,0.199 1.965,0.441 2.926,0.734 0.965,0.293 1.91,0.633 2.84,1.016 0.933,0.387 1.84,0.816 2.73,1.293 0.887,0.473 1.75,0.988 2.586,1.551 0.84,0.558 1.649,1.156 2.426,1.797 0.777,0.636 1.523,1.312 2.234,2.027 0.711,0.711 1.387,1.457 2.028,2.234 0.637,0.778 1.238,1.586 1.797,2.422 0.558,0.84 1.078,1.703 1.55,2.59 0.477,0.887 0.907,1.797 1.29,2.727 0.386,0.929 0.726,1.878 1.019,2.843 0.293,0.961 0.535,1.938 0.731,2.926 0.199,0.988 0.343,1.981 0.445,2.984 0.097,1 0.148,2.008 0.148,3.012 z" /></g><path
         id="path98"
         style="fill:#000000;fill-opacity:1;fill-rule:nonzero;stroke:none"
         d="m 602.484,174.176 c 0,-1.25 0.348,-2.176 1.047,-2.781 0.582,-0.5 1.289,-0.75 2.125,-0.75 0.926,0 1.688,0.308 2.282,0.921 0.593,0.606 0.89,1.446 0.89,2.516 0,0.875 -0.133,1.563 -0.39,2.063 -0.262,0.5 -0.641,0.89 -1.141,1.171 -0.5,0.27 -1.047,0.407 -1.641,0.407 -0.949,0 -1.715,-0.301 -2.297,-0.907 -0.586,-0.613 -0.875,-1.492 -0.875,-2.64 z m 1.172,0 c 0,0.875 0.188,1.527 0.563,1.953 0.383,0.43 0.863,0.641 1.437,0.641 0.571,0 1.047,-0.211 1.422,-0.641 0.375,-0.438 0.563,-1.098 0.563,-1.984 0,-0.844 -0.196,-1.477 -0.579,-1.907 -0.374,-0.426 -0.843,-0.64 -1.406,-0.64 -0.574,0 -1.054,0.214 -1.437,0.64 -0.375,0.43 -0.563,1.074 -0.563,1.938 z" /><path
         id="path100"
         style="fill:#000000;fill-opacity:1;fill-rule:nonzero;stroke:none"
         d="m 612.137,180.082 0.14,0.844 c -0.273,0.062 -0.515,0.094 -0.734,0.094 -0.344,0 -0.617,-0.055 -0.813,-0.157 -0.187,-0.113 -0.324,-0.258 -0.406,-0.437 -0.074,-0.188 -0.109,-0.567 -0.109,-1.141 v -3.25 h -0.703 v -0.734 h 0.703 v -1.406 l 0.953,-0.579 v 1.985 h 0.969 v 0.734 h -0.969 v 3.313 c 0,0.273 0.016,0.449 0.047,0.531 0.039,0.074 0.097,0.137 0.172,0.187 0.07,0.043 0.179,0.063 0.328,0.063 0.101,0 0.242,-0.016 0.422,-0.047 z" /><path
         id="path102"
         style="fill:#000000;fill-opacity:1;fill-rule:nonzero;stroke:none"
         d="m 615.082,179.676 v -2.125 h -2.125 v -0.906 h 2.125 v -2.11 h 0.891 v 2.11 h 2.125 v 0.906 h -2.125 v 2.125 z" /><path
         id="path104"
         style="fill:#000000;fill-opacity:1;fill-rule:nonzero;stroke:none"
         d="m 624.191,180.02 v 0.921 h -5.156 c -0.012,-0.226 0.024,-0.453 0.11,-0.671 0.132,-0.344 0.343,-0.688 0.625,-1.032 0.289,-0.343 0.71,-0.734 1.265,-1.172 0.844,-0.695 1.41,-1.25 1.703,-1.656 0.301,-0.406 0.453,-0.789 0.453,-1.156 0,-0.375 -0.136,-0.692 -0.406,-0.953 -0.273,-0.258 -0.625,-0.391 -1.062,-0.391 -0.461,0 -0.828,0.141 -1.11,0.422 -0.273,0.273 -0.406,0.652 -0.406,1.141 l -0.984,-0.11 c 0.062,-0.726 0.312,-1.285 0.75,-1.672 0.445,-0.382 1.039,-0.578 1.781,-0.578 0.738,0 1.328,0.211 1.766,0.625 0.437,0.418 0.656,0.934 0.656,1.547 0,0.305 -0.063,0.606 -0.188,0.906 -0.125,0.305 -0.34,0.621 -0.64,0.954 -0.293,0.335 -0.782,0.793 -1.469,1.375 -0.574,0.48 -0.945,0.808 -1.109,0.984 -0.168,0.168 -0.305,0.34 -0.407,0.516 z" /><g
         id="g106"><path
           id="path108"
           style="fill:#f5f5f5;fill-opacity:1;fill-rule:nonzero;stroke:#666666;stroke-width:0.76558602;stroke-linecap:butt;stroke-linejoin:miter;stroke-miterlimit:4;stroke-dasharray:none;stroke-opacity:1"
           d="m 319.379,174.867 c 0,1.008 -0.047,2.012 -0.145,3.016 -0.101,1.004 -0.246,1.996 -0.445,2.984 -0.195,0.988 -0.441,1.965 -0.73,2.926 -0.293,0.965 -0.633,1.91 -1.02,2.844 -0.383,0.929 -0.812,1.84 -1.289,2.726 -0.473,0.887 -0.992,1.75 -1.551,2.586 -0.558,0.84 -1.16,1.649 -1.797,2.426 -0.64,0.777 -1.316,1.523 -2.027,2.234 -0.711,0.715 -1.457,1.387 -2.234,2.028 -0.782,0.64 -1.586,1.238 -2.426,1.797 -0.836,0.558 -1.699,1.078 -2.586,1.55 -0.891,0.477 -1.797,0.907 -2.731,1.293 -0.929,0.383 -1.875,0.723 -2.839,1.016 -0.965,0.293 -1.938,0.535 -2.926,0.73 -0.988,0.2 -1.985,0.348 -2.985,0.446 -1.003,0.097 -2.007,0.148 -3.015,0.148 -1.008,0 -2.012,-0.051 -3.012,-0.148 -1.004,-0.098 -2,-0.246 -2.984,-0.446 -0.989,-0.195 -1.965,-0.437 -2.93,-0.73 -0.961,-0.293 -1.91,-0.633 -2.84,-1.016 -0.929,-0.386 -1.84,-0.816 -2.726,-1.293 -0.891,-0.472 -1.754,-0.992 -2.59,-1.55 -0.836,-0.559 -1.645,-1.157 -2.422,-1.797 -0.781,-0.641 -1.524,-1.313 -2.238,-2.028 -0.711,-0.711 -1.387,-1.457 -2.024,-2.234 -0.64,-0.777 -1.238,-1.586 -1.801,-2.426 -0.558,-0.836 -1.074,-1.699 -1.55,-2.586 -0.473,-0.886 -0.903,-1.797 -1.289,-2.726 -0.387,-0.934 -0.723,-1.879 -1.016,-2.844 -0.293,-0.961 -0.539,-1.938 -0.734,-2.926 -0.196,-0.988 -0.344,-1.98 -0.442,-2.984 -0.101,-1.004 -0.148,-2.008 -0.148,-3.016 0,-1.004 0.047,-2.012 0.148,-3.012 0.098,-1.003 0.246,-1.996 0.442,-2.984 0.195,-0.988 0.441,-1.965 0.734,-2.926 0.293,-0.965 0.629,-1.914 1.016,-2.843 0.386,-0.93 0.816,-1.84 1.289,-2.727 0.476,-0.887 0.992,-1.75 1.55,-2.59 0.563,-0.836 1.161,-1.644 1.801,-2.422 0.637,-0.777 1.313,-1.523 2.024,-2.234 0.714,-0.715 1.457,-1.391 2.238,-2.027 0.777,-0.641 1.586,-1.239 2.422,-1.797 0.836,-0.563 1.699,-1.078 2.59,-1.551 0.886,-0.477 1.797,-0.906 2.726,-1.293 0.93,-0.383 1.879,-0.723 2.84,-1.016 0.965,-0.293 1.941,-0.535 2.93,-0.734 0.984,-0.195 1.98,-0.344 2.984,-0.441 1,-0.098 2.004,-0.149 3.012,-0.149 1.008,0 2.012,0.051 3.015,0.149 1,0.097 1.997,0.246 2.985,0.441 0.988,0.199 1.961,0.441 2.926,0.734 0.964,0.293 1.91,0.633 2.839,1.016 0.934,0.387 1.84,0.816 2.731,1.293 0.887,0.473 1.75,0.988 2.586,1.551 0.84,0.558 1.644,1.156 2.426,1.797 0.777,0.636 1.523,1.312 2.234,2.027 0.711,0.711 1.387,1.457 2.027,2.234 0.637,0.778 1.239,1.586 1.797,2.422 0.559,0.84 1.078,1.703 1.551,2.59 0.477,0.887 0.906,1.797 1.289,2.727 0.387,0.929 0.727,1.878 1.02,2.843 0.289,0.961 0.535,1.938 0.73,2.926 0.199,0.988 0.344,1.981 0.445,2.984 0.098,1 0.145,2.008 0.145,3.012 z" /></g><path
         id="path110"
         style="fill:#000000;fill-opacity:1;fill-rule:nonzero;stroke:none"
         d="m 283.539,174.176 c 0,-1.25 0.348,-2.176 1.047,-2.781 0.582,-0.5 1.289,-0.75 2.125,-0.75 0.926,0 1.687,0.308 2.281,0.921 0.594,0.606 0.891,1.446 0.891,2.516 0,0.875 -0.133,1.563 -0.391,2.063 -0.262,0.5 -0.64,0.89 -1.14,1.171 -0.5,0.27 -1.047,0.407 -1.641,0.407 -0.949,0 -1.715,-0.301 -2.297,-0.907 -0.586,-0.613 -0.875,-1.492 -0.875,-2.64 z m 1.172,0 c 0,0.875 0.187,1.527 0.562,1.953 0.383,0.43 0.864,0.641 1.438,0.641 0.57,0 1.047,-0.211 1.422,-0.641 0.375,-0.438 0.562,-1.098 0.562,-1.984 0,-0.844 -0.195,-1.477 -0.578,-1.907 -0.375,-0.426 -0.844,-0.64 -1.406,-0.64 -0.574,0 -1.055,0.214 -1.438,0.64 -0.375,0.43 -0.562,1.074 -0.562,1.938 z" /><path
         id="path112"
         style="fill:#000000;fill-opacity:1;fill-rule:nonzero;stroke:none"
         d="m 293.195,180.082 0.141,0.844 c -0.274,0.062 -0.516,0.094 -0.734,0.094 -0.344,0 -0.618,-0.055 -0.813,-0.157 -0.187,-0.113 -0.324,-0.258 -0.406,-0.437 -0.074,-0.188 -0.11,-0.567 -0.11,-1.141 v -3.25 h -0.703 v -0.734 h 0.703 v -1.406 l 0.954,-0.579 v 1.985 h 0.968 v 0.734 h -0.968 v 3.313 c 0,0.273 0.015,0.449 0.046,0.531 0.039,0.074 0.098,0.137 0.172,0.187 0.071,0.043 0.18,0.063 0.328,0.063 0.102,0 0.243,-0.016 0.422,-0.047 z" /><g
         id="g114"><path
           id="path116"
           style="fill:#f5f5f5;fill-opacity:1;fill-rule:nonzero;stroke:#666666;stroke-width:0.76558602;stroke-linecap:butt;stroke-linejoin:miter;stroke-miterlimit:4;stroke-dasharray:none;stroke-opacity:1"
           d="m 151.809,174.867 c 0,1.008 -0.051,2.012 -0.149,3.016 -0.098,1.004 -0.246,1.996 -0.445,2.984 -0.195,0.988 -0.438,1.965 -0.731,2.926 -0.293,0.965 -0.632,1.91 -1.015,2.844 -0.387,0.929 -0.817,1.84 -1.293,2.726 -0.473,0.887 -0.992,1.75 -1.551,2.586 -0.559,0.84 -1.156,1.649 -1.797,2.426 -0.64,0.777 -1.312,1.523 -2.027,2.234 -0.711,0.715 -1.457,1.387 -2.235,2.028 -0.777,0.64 -1.586,1.238 -2.425,1.797 -0.836,0.558 -1.7,1.078 -2.586,1.55 -0.887,0.477 -1.797,0.907 -2.727,1.293 -0.933,0.383 -1.879,0.723 -2.844,1.016 -0.961,0.293 -1.937,0.535 -2.925,0.73 -0.989,0.2 -1.985,0.348 -2.985,0.446 -1.004,0.097 -2.008,0.148 -3.015,0.148 -1.004,0 -2.012,-0.051 -3.012,-0.148 -1.004,-0.098 -1.996,-0.246 -2.985,-0.446 -0.988,-0.195 -1.964,-0.437 -2.929,-0.73 -0.961,-0.293 -1.91,-0.633 -2.84,-1.016 -0.93,-0.386 -1.84,-0.816 -2.727,-1.293 -0.886,-0.472 -1.75,-0.992 -2.589,-1.55 -0.836,-0.559 -1.645,-1.157 -2.422,-1.797 -0.778,-0.641 -1.524,-1.313 -2.235,-2.028 -0.715,-0.711 -1.39,-1.457 -2.027,-2.234 -0.641,-0.777 -1.238,-1.586 -1.797,-2.426 -0.562,-0.836 -1.078,-1.699 -1.551,-2.586 -0.476,-0.886 -0.906,-1.797 -1.293,-2.726 -0.382,-0.934 -0.722,-1.879 -1.015,-2.844 -0.293,-0.961 -0.535,-1.938 -0.735,-2.926 -0.195,-0.988 -0.343,-1.98 -0.441,-2.984 -0.098,-1.004 -0.149,-2.008 -0.149,-3.016 0,-1.004 0.051,-2.012 0.149,-3.012 0.098,-1.003 0.246,-1.996 0.441,-2.984 0.2,-0.988 0.442,-1.965 0.735,-2.926 0.293,-0.965 0.633,-1.914 1.015,-2.843 0.387,-0.93 0.817,-1.84 1.293,-2.727 0.473,-0.887 0.989,-1.75 1.551,-2.59 0.559,-0.836 1.156,-1.644 1.797,-2.422 0.637,-0.777 1.312,-1.523 2.027,-2.234 0.711,-0.715 1.457,-1.391 2.235,-2.027 0.777,-0.641 1.586,-1.239 2.422,-1.797 0.839,-0.563 1.703,-1.078 2.589,-1.551 0.887,-0.477 1.797,-0.906 2.727,-1.293 0.93,-0.383 1.879,-0.723 2.84,-1.016 0.965,-0.293 1.941,-0.535 2.929,-0.734 0.989,-0.195 1.981,-0.344 2.985,-0.441 1,-0.098 2.008,-0.149 3.012,-0.149 1.007,0 2.011,0.051 3.015,0.149 1,0.097 1.996,0.246 2.985,0.441 0.988,0.199 1.964,0.441 2.925,0.734 0.965,0.293 1.911,0.633 2.844,1.016 0.93,0.387 1.84,0.816 2.727,1.293 0.886,0.473 1.75,0.988 2.586,1.551 0.839,0.558 1.648,1.156 2.425,1.797 0.778,0.636 1.524,1.312 2.235,2.027 0.715,0.711 1.387,1.457 2.027,2.234 0.641,0.778 1.238,1.586 1.797,2.422 0.559,0.84 1.078,1.703 1.551,2.59 0.476,0.887 0.906,1.797 1.293,2.727 0.383,0.929 0.722,1.878 1.015,2.843 0.293,0.961 0.536,1.938 0.731,2.926 0.199,0.988 0.347,1.981 0.445,2.984 0.098,1 0.149,2.008 0.149,3.012 z" /></g><path
         id="path118"
         style="fill:#000000;fill-opacity:1;fill-rule:nonzero;stroke:none"
         d="m 111.129,174.176 c 0,-1.25 0.348,-2.176 1.047,-2.781 0.582,-0.5 1.289,-0.75 2.125,-0.75 0.926,0 1.687,0.308 2.281,0.921 0.594,0.606 0.891,1.446 0.891,2.516 0,0.875 -0.133,1.563 -0.391,2.063 -0.262,0.5 -0.641,0.89 -1.141,1.171 -0.5,0.27 -1.046,0.407 -1.64,0.407 -0.949,0 -1.715,-0.301 -2.297,-0.907 -0.586,-0.613 -0.875,-1.492 -0.875,-2.64 z m 1.172,0 c 0,0.875 0.187,1.527 0.562,1.953 0.383,0.43 0.864,0.641 1.438,0.641 0.57,0 1.047,-0.211 1.422,-0.641 0.375,-0.438 0.562,-1.098 0.562,-1.984 0,-0.844 -0.195,-1.477 -0.578,-1.907 -0.375,-0.426 -0.844,-0.64 -1.406,-0.64 -0.574,0 -1.055,0.214 -1.438,0.64 -0.375,0.43 -0.562,1.074 -0.562,1.938 z" /><path
         id="path120"
         style="fill:#000000;fill-opacity:1;fill-rule:nonzero;stroke:none"
         d="m 120.781,180.082 0.141,0.844 c -0.274,0.062 -0.516,0.094 -0.734,0.094 -0.344,0 -0.618,-0.055 -0.813,-0.157 -0.187,-0.113 -0.324,-0.258 -0.406,-0.437 -0.074,-0.188 -0.11,-0.567 -0.11,-1.141 v -3.25 h -0.703 v -0.734 h 0.703 v -1.406 l 0.953,-0.579 v 1.985 h 0.969 v 0.734 h -0.969 v 3.313 c 0,0.273 0.016,0.449 0.047,0.531 0.039,0.074 0.098,0.137 0.172,0.187 0.071,0.043 0.18,0.063 0.328,0.063 0.102,0 0.243,-0.016 0.422,-0.047 z" /><path
         id="path122"
         style="fill:#000000;fill-opacity:1;fill-rule:nonzero;stroke:none"
         d="m 121.336,177.645 h 2.938 v 0.953 h -2.938 z" /><path
         id="path124"
         style="fill:#000000;fill-opacity:1;fill-rule:nonzero;stroke:none"
         d="m 128.68,180.941 h -0.969 v -6.093 c -0.231,0.218 -0.531,0.437 -0.906,0.656 -0.375,0.219 -0.711,0.383 -1,0.484 v -0.922 c 0.531,-0.25 0.992,-0.55 1.39,-0.906 0.407,-0.363 0.692,-0.711 0.86,-1.047 h 0.625 z" /><g
         id="g126"><path
           id="path128"
           style="fill:none;stroke:#000000;stroke-width:0.76558602;stroke-linecap:butt;stroke-linejoin:miter;stroke-miterlimit:10;stroke-dasharray:none;stroke-opacity:1"
           d="m 121.059,69.555 v 69.668" /></g><g
         id="g130"><path
           id="path132"
           style="fill:#000000;fill-opacity:1;fill-rule:nonzero;stroke:#000000;stroke-width:0.76558602;stroke-linecap:butt;stroke-linejoin:miter;stroke-miterlimit:10;stroke-dasharray:none;stroke-opacity:1"
           d="m 121.059,143.262 -2.692,-5.383 2.692,1.344 2.687,-1.344 z" /></g><g
         id="g134"><path
           id="path136"
           style="fill:none;stroke:#000000;stroke-width:0.76558602;stroke-linecap:butt;stroke-linejoin:miter;stroke-miterlimit:10;stroke-dasharray:none;stroke-opacity:1"
           d="m 288.633,69.555 v 69.668" /></g><g
         id="g138"><path
           id="path140"
           style="fill:#000000;fill-opacity:1;fill-rule:nonzero;stroke:#000000;stroke-width:0.76558602;stroke-linecap:butt;stroke-linejoin:miter;stroke-miterlimit:10;stroke-dasharray:none;stroke-opacity:1"
           d="m 288.633,143.262 -2.695,-5.383 2.695,1.344 2.687,-1.344 z" /></g><g
         id="g142"><path
           id="path144"
           style="fill:none;stroke:#000000;stroke-width:0.76558602;stroke-linecap:butt;stroke-linejoin:miter;stroke-miterlimit:10;stroke-dasharray:none;stroke-opacity:1"
           d="m 450.824,69.555 v 69.668" /></g><g
         id="g146"><path
           id="path148"
           style="fill:#000000;fill-opacity:1;fill-rule:nonzero;stroke:#000000;stroke-width:0.76558602;stroke-linecap:butt;stroke-linejoin:miter;stroke-miterlimit:10;stroke-dasharray:none;stroke-opacity:1"
           d="m 450.824,143.262 -2.695,-5.383 2.695,1.344 2.688,-1.344 z" /></g><g
         id="g150"><path
           id="path152"
           style="fill:none;stroke:#000000;stroke-width:0.76558602;stroke-linecap:butt;stroke-linejoin:miter;stroke-miterlimit:10;stroke-dasharray:none;stroke-opacity:1"
           d="m 613.781,69.555 v 69.668" /></g><g
         id="g154"><path
           id="path156"
           style="fill:#000000;fill-opacity:1;fill-rule:nonzero;stroke:#000000;stroke-width:0.76558602;stroke-linecap:butt;stroke-linejoin:miter;stroke-miterlimit:10;stroke-dasharray:none;stroke-opacity:1"
           d="m 613.781,143.262 -2.687,-5.383 2.687,1.344 2.696,-1.344 z" /></g><g
         id="g158"><path
           id="path160"
           style="fill:#f5f5f5;fill-opacity:1;fill-rule:nonzero;stroke:#666666;stroke-width:0.76558602;stroke-linecap:butt;stroke-linejoin:miter;stroke-miterlimit:4;stroke-dasharray:none;stroke-opacity:1"
           d="m 235.594,111.062 c 0,1.008 -0.051,2.012 -0.149,3.016 -0.097,1 -0.246,1.996 -0.441,2.984 -0.195,0.985 -0.442,1.961 -0.734,2.926 -0.293,0.965 -0.629,1.91 -1.016,2.84 -0.387,0.93 -0.816,1.84 -1.289,2.731 -0.477,0.886 -0.992,1.75 -1.551,2.586 -0.562,0.835 -1.16,1.644 -1.801,2.425 -0.636,0.778 -1.312,1.524 -2.023,2.235 -0.715,0.711 -1.457,1.386 -2.238,2.027 -0.778,0.637 -1.586,1.238 -2.422,1.797 -0.84,0.559 -1.7,1.074 -2.59,1.551 -0.887,0.472 -1.797,0.902 -2.727,1.289 -0.929,0.386 -1.879,0.726 -2.84,1.015 -0.964,0.293 -1.941,0.539 -2.929,0.735 -0.985,0.195 -1.981,0.343 -2.985,0.441 -1,0.102 -2.004,0.149 -3.011,0.149 -1.008,0 -2.012,-0.047 -3.016,-0.149 -1,-0.098 -1.996,-0.246 -2.984,-0.441 -0.989,-0.196 -1.961,-0.442 -2.926,-0.735 -0.965,-0.289 -1.91,-0.629 -2.84,-1.015 -0.934,-0.387 -1.84,-0.817 -2.73,-1.289 -0.887,-0.477 -1.75,-0.992 -2.586,-1.551 -0.84,-0.559 -1.645,-1.16 -2.426,-1.797 -0.778,-0.641 -1.524,-1.316 -2.235,-2.027 -0.71,-0.711 -1.386,-1.457 -2.027,-2.235 -0.637,-0.781 -1.238,-1.59 -1.797,-2.425 -0.558,-0.836 -1.078,-1.7 -1.551,-2.586 -0.476,-0.891 -0.906,-1.801 -1.289,-2.731 -0.386,-0.93 -0.726,-1.875 -1.019,-2.84 -0.289,-0.965 -0.535,-1.941 -0.731,-2.926 -0.199,-0.988 -0.343,-1.984 -0.445,-2.984 -0.098,-1.004 -0.148,-2.008 -0.148,-3.016 0,-1.007 0.05,-2.011 0.148,-3.015 0.102,-1 0.246,-1.996 0.445,-2.985 0.196,-0.984 0.442,-1.96 0.731,-2.925 0.293,-0.965 0.633,-1.91 1.019,-2.84 0.383,-0.93 0.813,-1.84 1.289,-2.731 0.473,-0.886 0.993,-1.75 1.551,-2.586 0.559,-0.835 1.16,-1.644 1.797,-2.421 0.641,-0.782 1.317,-1.528 2.027,-2.239 0.711,-0.711 1.457,-1.386 2.235,-2.027 0.781,-0.637 1.586,-1.238 2.426,-1.797 0.836,-0.558 1.699,-1.074 2.586,-1.551 0.89,-0.472 1.796,-0.902 2.73,-1.289 0.93,-0.386 1.875,-0.726 2.84,-1.015 0.965,-0.293 1.937,-0.539 2.926,-0.735 0.988,-0.195 1.984,-0.344 2.984,-0.441 1.004,-0.102 2.008,-0.149 3.016,-0.149 1.007,0 2.011,0.047 3.011,0.149 1.004,0.097 2,0.246 2.985,0.441 0.988,0.196 1.965,0.442 2.929,0.735 0.961,0.289 1.911,0.629 2.84,1.015 0.93,0.387 1.84,0.817 2.727,1.289 0.89,0.477 1.75,0.993 2.59,1.551 0.836,0.559 1.644,1.16 2.422,1.797 0.781,0.641 1.523,1.316 2.238,2.027 0.711,0.711 1.387,1.457 2.023,2.239 0.641,0.777 1.239,1.586 1.801,2.421 0.559,0.836 1.074,1.7 1.551,2.586 0.473,0.891 0.902,1.801 1.289,2.731 0.387,0.93 0.723,1.875 1.016,2.84 0.292,0.965 0.539,1.941 0.734,2.925 0.195,0.989 0.344,1.985 0.441,2.985 0.098,1.004 0.149,2.008 0.149,3.015 z" /></g><path
         id="path162"
         style="fill:#000000;fill-opacity:1;fill-rule:nonzero;stroke:none"
         d="m 202.438,113.766 -2.579,-6.782 h 1.203 l 1.454,4.063 c 0.156,0.437 0.3,0.891 0.437,1.359 0.102,-0.351 0.242,-0.781 0.422,-1.281 l 1.516,-4.141 h 1.171 l -2.562,6.782 z" /><path
         id="path164"
         style="fill:#000000;fill-opacity:1;fill-rule:nonzero;stroke:none"
         d="m 209.035,116.281 0.141,0.844 c -0.274,0.063 -0.516,0.094 -0.735,0.094 -0.343,0 -0.617,-0.055 -0.812,-0.157 -0.188,-0.113 -0.324,-0.257 -0.406,-0.437 -0.075,-0.187 -0.11,-0.566 -0.11,-1.141 v -3.25 H 206.41 V 111.5 h 0.703 v -1.406 l 0.953,-0.578 v 1.984 h 0.969 v 0.734 h -0.969 v 3.313 c 0,0.273 0.016,0.449 0.047,0.531 0.039,0.074 0.098,0.137 0.172,0.188 0.07,0.043 0.18,0.062 0.328,0.062 0.102,0 0.242,-0.016 0.422,-0.047 z" /><g
         id="g166"><path
           id="path168"
           style="fill:#f5f5f5;fill-opacity:1;fill-rule:nonzero;stroke:#666666;stroke-width:0.76558602;stroke-linecap:butt;stroke-linejoin:miter;stroke-miterlimit:4;stroke-dasharray:none;stroke-opacity:1"
           d="m 402.395,111.062 c 0,1.008 -0.051,2.012 -0.149,3.016 -0.098,1 -0.246,1.996 -0.441,2.984 -0.2,0.985 -0.442,1.961 -0.735,2.926 -0.293,0.965 -0.632,1.91 -1.015,2.84 -0.387,0.93 -0.817,1.84 -1.293,2.731 -0.473,0.886 -0.989,1.75 -1.551,2.586 -0.559,0.835 -1.156,1.644 -1.797,2.425 -0.637,0.778 -1.312,1.524 -2.027,2.235 -0.711,0.711 -1.457,1.386 -2.235,2.027 -0.777,0.637 -1.586,1.238 -2.422,1.797 -0.839,0.559 -1.699,1.074 -2.589,1.551 -0.887,0.472 -1.797,0.902 -2.727,1.289 -0.93,0.386 -1.879,0.726 -2.84,1.015 -0.965,0.293 -1.941,0.539 -2.929,0.735 -0.989,0.195 -1.981,0.343 -2.985,0.441 -1,0.102 -2.008,0.149 -3.012,0.149 -1.007,0 -2.011,-0.047 -3.015,-0.149 -1,-0.098 -1.996,-0.246 -2.985,-0.441 -0.988,-0.196 -1.964,-0.442 -2.925,-0.735 -0.965,-0.289 -1.911,-0.629 -2.844,-1.015 -0.93,-0.387 -1.84,-0.817 -2.727,-1.289 -0.886,-0.477 -1.75,-0.992 -2.586,-1.551 -0.839,-0.559 -1.648,-1.16 -2.425,-1.797 -0.778,-0.641 -1.524,-1.316 -2.235,-2.027 -0.715,-0.711 -1.386,-1.457 -2.027,-2.235 -0.641,-0.781 -1.238,-1.59 -1.797,-2.425 -0.559,-0.836 -1.078,-1.7 -1.551,-2.586 -0.476,-0.891 -0.906,-1.801 -1.293,-2.731 -0.383,-0.93 -0.722,-1.875 -1.015,-2.84 -0.293,-0.965 -0.535,-1.941 -0.731,-2.926 -0.199,-0.988 -0.347,-1.984 -0.445,-2.984 -0.098,-1.004 -0.149,-2.008 -0.149,-3.016 0,-1.007 0.051,-2.011 0.149,-3.015 0.098,-1 0.246,-1.996 0.445,-2.985 0.196,-0.984 0.438,-1.96 0.731,-2.925 0.293,-0.965 0.632,-1.91 1.015,-2.84 0.387,-0.93 0.817,-1.84 1.293,-2.731 0.473,-0.886 0.992,-1.75 1.551,-2.586 0.559,-0.835 1.156,-1.644 1.797,-2.421 0.641,-0.782 1.312,-1.528 2.027,-2.239 0.711,-0.711 1.457,-1.386 2.235,-2.027 0.777,-0.637 1.586,-1.238 2.425,-1.797 0.836,-0.558 1.7,-1.074 2.586,-1.551 0.887,-0.472 1.797,-0.902 2.727,-1.289 0.933,-0.386 1.879,-0.726 2.844,-1.015 0.961,-0.293 1.937,-0.539 2.925,-0.735 0.989,-0.195 1.985,-0.344 2.985,-0.441 1.004,-0.102 2.008,-0.149 3.015,-0.149 1.004,0 2.012,0.047 3.012,0.149 1.004,0.097 1.996,0.246 2.985,0.441 0.988,0.196 1.964,0.442 2.929,0.735 0.961,0.289 1.91,0.629 2.84,1.015 0.93,0.387 1.84,0.817 2.727,1.289 0.886,0.477 1.75,0.993 2.589,1.551 0.836,0.559 1.645,1.16 2.422,1.797 0.778,0.641 1.524,1.316 2.235,2.027 0.715,0.711 1.39,1.457 2.027,2.239 0.641,0.777 1.238,1.586 1.797,2.421 0.562,0.836 1.078,1.7 1.551,2.586 0.476,0.891 0.906,1.801 1.293,2.731 0.383,0.93 0.722,1.875 1.015,2.84 0.293,0.965 0.535,1.941 0.735,2.925 0.195,0.989 0.343,1.985 0.441,2.985 0.098,1.004 0.149,2.008 0.149,3.015 z" /></g><path
         id="path170"
         style="fill:#000000;fill-opacity:1;fill-rule:nonzero;stroke:none"
         d="m 363.035,113.766 -2.578,-6.782 h 1.203 l 1.453,4.063 c 0.157,0.437 0.301,0.891 0.438,1.359 0.101,-0.351 0.242,-0.781 0.422,-1.281 l 1.515,-4.141 h 1.172 l -2.562,6.782 z" /><path
         id="path172"
         style="fill:#000000;fill-opacity:1;fill-rule:nonzero;stroke:none"
         d="m 369.629,116.281 0.141,0.844 c -0.274,0.063 -0.516,0.094 -0.735,0.094 -0.344,0 -0.617,-0.055 -0.812,-0.157 -0.188,-0.113 -0.325,-0.257 -0.407,-0.437 -0.074,-0.187 -0.109,-0.566 -0.109,-1.141 v -3.25 h -0.703 V 111.5 h 0.703 v -1.406 l 0.953,-0.578 v 1.984 h 0.969 v 0.734 h -0.969 v 3.313 c 0,0.273 0.016,0.449 0.047,0.531 0.039,0.074 0.098,0.137 0.172,0.188 0.07,0.043 0.18,0.062 0.328,0.062 0.102,0 0.242,-0.016 0.422,-0.047 z" /><path
         id="path174"
         style="fill:#000000;fill-opacity:1;fill-rule:nonzero;stroke:none"
         d="m 372.574,115.875 v -2.125 h -2.125 v -0.906 h 2.125 v -2.11 h 0.891 v 2.11 h 2.125 v 0.906 h -2.125 v 2.125 z" /><path
         id="path176"
         style="fill:#000000;fill-opacity:1;fill-rule:nonzero;stroke:none"
         d="m 380.262,117.141 h -0.969 v -6.094 c -0.231,0.219 -0.531,0.437 -0.906,0.656 -0.375,0.219 -0.711,0.383 -1,0.485 v -0.922 c 0.531,-0.25 0.992,-0.551 1.39,-0.907 0.407,-0.363 0.692,-0.711 0.86,-1.047 h 0.625 z" /><g
         id="g178"><path
           id="path180"
           style="fill:#f5f5f5;fill-opacity:1;fill-rule:nonzero;stroke:#666666;stroke-width:0.76558602;stroke-linecap:butt;stroke-linejoin:miter;stroke-miterlimit:4;stroke-dasharray:none;stroke-opacity:1"
           d="m 569.969,111.062 c 0,1.008 -0.051,2.012 -0.149,3.016 -0.097,1 -0.246,1.996 -0.445,2.984 -0.195,0.985 -0.437,1.961 -0.73,2.926 -0.293,0.965 -0.633,1.91 -1.016,2.84 -0.387,0.93 -0.817,1.84 -1.293,2.731 -0.473,0.886 -0.992,1.75 -1.551,2.586 -0.558,0.835 -1.156,1.644 -1.797,2.425 -0.64,0.778 -1.312,1.524 -2.027,2.235 -0.711,0.711 -1.457,1.386 -2.234,2.027 -0.778,0.637 -1.586,1.238 -2.426,1.797 -0.836,0.559 -1.699,1.074 -2.586,1.551 -0.887,0.472 -1.797,0.902 -2.727,1.289 -0.933,0.386 -1.879,0.726 -2.843,1.015 -0.961,0.293 -1.938,0.539 -2.926,0.735 -0.989,0.195 -1.985,0.343 -2.985,0.441 -1.004,0.102 -2.007,0.149 -3.015,0.149 -1.004,0 -2.012,-0.047 -3.012,-0.149 -1.004,-0.098 -1.996,-0.246 -2.984,-0.441 -0.989,-0.196 -1.965,-0.442 -2.93,-0.735 -0.961,-0.289 -1.91,-0.629 -2.84,-1.015 -0.93,-0.387 -1.84,-0.817 -2.726,-1.289 -0.887,-0.477 -1.75,-0.992 -2.59,-1.551 -0.836,-0.559 -1.645,-1.16 -2.422,-1.797 -0.777,-0.641 -1.524,-1.316 -2.235,-2.027 -0.714,-0.711 -1.39,-1.457 -2.027,-2.235 -0.641,-0.781 -1.238,-1.59 -1.797,-2.425 -0.562,-0.836 -1.078,-1.7 -1.551,-2.586 -0.476,-0.891 -0.906,-1.801 -1.293,-2.731 -0.382,-0.93 -0.722,-1.875 -1.015,-2.84 -0.293,-0.965 -0.535,-1.941 -0.735,-2.926 -0.195,-0.988 -0.343,-1.984 -0.441,-2.984 -0.098,-1.004 -0.148,-2.008 -0.148,-3.016 0,-1.007 0.05,-2.011 0.148,-3.015 0.098,-1 0.246,-1.996 0.441,-2.985 0.2,-0.984 0.442,-1.96 0.735,-2.925 0.293,-0.965 0.633,-1.91 1.015,-2.84 0.387,-0.93 0.817,-1.84 1.293,-2.731 0.473,-0.886 0.989,-1.75 1.551,-2.586 0.559,-0.835 1.156,-1.644 1.797,-2.421 0.637,-0.782 1.313,-1.528 2.027,-2.239 0.711,-0.711 1.458,-1.386 2.235,-2.027 0.777,-0.637 1.586,-1.238 2.422,-1.797 0.84,-0.558 1.703,-1.074 2.59,-1.551 0.886,-0.472 1.796,-0.902 2.726,-1.289 0.93,-0.386 1.879,-0.726 2.84,-1.015 0.965,-0.293 1.941,-0.539 2.93,-0.735 0.988,-0.195 1.98,-0.344 2.984,-0.441 1,-0.102 2.008,-0.149 3.012,-0.149 1.008,0 2.011,0.047 3.015,0.149 1,0.097 1.996,0.246 2.985,0.441 0.988,0.196 1.965,0.442 2.926,0.735 0.964,0.289 1.91,0.629 2.843,1.015 0.93,0.387 1.84,0.817 2.727,1.289 0.887,0.477 1.75,0.993 2.586,1.551 0.84,0.559 1.648,1.16 2.426,1.797 0.777,0.641 1.523,1.316 2.234,2.027 0.715,0.711 1.387,1.457 2.027,2.239 0.641,0.777 1.239,1.586 1.797,2.421 0.559,0.836 1.078,1.7 1.551,2.586 0.476,0.891 0.906,1.801 1.293,2.731 0.383,0.93 0.723,1.875 1.016,2.84 0.293,0.965 0.535,1.941 0.73,2.925 0.199,0.989 0.348,1.985 0.445,2.985 0.098,1.004 0.149,2.008 0.149,3.015 z" /></g><path
         id="path182"
         style="fill:#000000;fill-opacity:1;fill-rule:nonzero;stroke:none"
         d="m 530.605,113.766 -2.578,-6.782 h 1.203 l 1.454,4.063 c 0.156,0.437 0.3,0.891 0.437,1.359 0.102,-0.351 0.242,-0.781 0.422,-1.281 l 1.516,-4.141 h 1.171 l -2.562,6.782 z" /><path
         id="path184"
         style="fill:#000000;fill-opacity:1;fill-rule:nonzero;stroke:none"
         d="m 537.203,116.281 0.141,0.844 c -0.274,0.063 -0.516,0.094 -0.735,0.094 -0.343,0 -0.617,-0.055 -0.812,-0.157 -0.188,-0.113 -0.324,-0.257 -0.406,-0.437 -0.075,-0.187 -0.11,-0.566 -0.11,-1.141 v -3.25 h -0.703 V 111.5 h 0.703 v -1.406 l 0.953,-0.578 v 1.984 h 0.969 v 0.734 h -0.969 v 3.313 c 0,0.273 0.016,0.449 0.047,0.531 0.039,0.074 0.098,0.137 0.172,0.188 0.07,0.043 0.18,0.062 0.328,0.062 0.102,0 0.242,-0.016 0.422,-0.047 z" /><path
         id="path186"
         style="fill:#000000;fill-opacity:1;fill-rule:nonzero;stroke:none"
         d="m 540.148,115.875 v -2.125 h -2.125 v -0.906 h 2.125 v -2.11 h 0.891 v 2.11 h 2.125 v 0.906 h -2.125 v 2.125 z" /><path
         id="path188"
         style="fill:#000000;fill-opacity:1;fill-rule:nonzero;stroke:none"
         d="m 549.254,116.219 v 0.922 h -5.156 c -0.012,-0.227 0.023,-0.453 0.109,-0.672 0.133,-0.344 0.344,-0.688 0.625,-1.031 0.289,-0.344 0.711,-0.735 1.266,-1.172 0.843,-0.696 1.41,-1.25 1.703,-1.657 0.301,-0.406 0.453,-0.789 0.453,-1.156 0,-0.375 -0.137,-0.691 -0.406,-0.953 -0.274,-0.258 -0.625,-0.391 -1.063,-0.391 -0.461,0 -0.828,0.141 -1.109,0.422 -0.274,0.274 -0.406,0.653 -0.406,1.141 l -0.985,-0.11 c 0.063,-0.726 0.313,-1.285 0.75,-1.671 0.445,-0.383 1.039,-0.579 1.781,-0.579 0.739,0 1.329,0.211 1.766,0.626 0.438,0.417 0.656,0.933 0.656,1.546 0,0.305 -0.062,0.606 -0.187,0.907 -0.125,0.304 -0.34,0.621 -0.641,0.953 -0.293,0.336 -0.781,0.793 -1.469,1.375 -0.574,0.48 -0.945,0.808 -1.109,0.984 -0.168,0.168 -0.305,0.34 -0.406,0.516 z" /><g
         id="g190"><path
           id="path192"
           style="fill:#f5f5f5;fill-opacity:1;fill-rule:nonzero;stroke:#666666;stroke-width:0.76558602;stroke-linecap:butt;stroke-linejoin:miter;stroke-miterlimit:4;stroke-dasharray:none;stroke-opacity:1"
           d="m 69.559,111.062 c 0,1.008 -0.047,2.012 -0.149,3.016 -0.098,1 -0.246,1.996 -0.441,2.984 -0.196,0.985 -0.442,1.961 -0.735,2.926 -0.293,0.965 -0.629,1.91 -1.015,2.84 -0.387,0.93 -0.817,1.84 -1.289,2.731 -0.477,0.886 -0.992,1.75 -1.551,2.586 -0.563,0.835 -1.16,1.644 -1.797,2.425 -0.641,0.778 -1.316,1.524 -2.027,2.235 -0.715,0.711 -1.457,1.386 -2.239,2.027 -0.777,0.637 -1.586,1.238 -2.421,1.797 -0.836,0.559 -1.7,1.074 -2.59,1.551 -0.887,0.472 -1.797,0.902 -2.727,1.289 -0.93,0.386 -1.875,0.726 -2.84,1.015 -0.965,0.293 -1.941,0.539 -2.926,0.735 -0.988,0.195 -1.984,0.343 -2.988,0.441 -1,0.102 -2.004,0.149 -3.012,0.149 -1.007,0 -2.011,-0.047 -3.015,-0.149 -1,-0.098 -1.996,-0.246 -2.985,-0.441 -0.988,-0.196 -1.96,-0.442 -2.925,-0.735 -0.965,-0.289 -1.91,-0.629 -2.84,-1.015 -0.93,-0.387 -1.84,-0.817 -2.731,-1.289 -0.886,-0.477 -1.75,-0.992 -2.586,-1.551 -0.835,-0.559 -1.644,-1.16 -2.425,-1.797 -0.778,-0.641 -1.524,-1.316 -2.235,-2.027 -0.711,-0.711 -1.386,-1.457 -2.027,-2.235 -0.637,-0.781 -1.238,-1.59 -1.797,-2.425 -0.558,-0.836 -1.074,-1.7 -1.551,-2.586 -0.472,-0.891 -0.906,-1.801 -1.289,-2.731 -0.386,-0.93 -0.726,-1.875 -1.015,-2.84 -0.293,-0.965 -0.539,-1.941 -0.735,-2.926 -0.195,-0.988 -0.344,-1.984 -0.441,-2.984 -0.102,-1.004 -0.149,-2.008 -0.149,-3.016 0,-1.007 0.047,-2.011 0.149,-3.015 0.097,-1 0.246,-1.996 0.441,-2.985 0.196,-0.984 0.442,-1.96 0.735,-2.925 0.289,-0.965 0.629,-1.91 1.015,-2.84 0.383,-0.93 0.817,-1.84 1.289,-2.731 0.477,-0.886 0.993,-1.75 1.551,-2.586 0.559,-0.835 1.16,-1.644 1.797,-2.421 0.641,-0.782 1.316,-1.528 2.027,-2.239 0.711,-0.711 1.457,-1.386 2.235,-2.027 0.781,-0.637 1.59,-1.238 2.425,-1.797 0.836,-0.558 1.7,-1.074 2.586,-1.551 0.891,-0.472 1.801,-0.902 2.731,-1.289 0.93,-0.386 1.875,-0.726 2.84,-1.015 0.965,-0.293 1.937,-0.539 2.925,-0.735 0.989,-0.195 1.985,-0.344 2.985,-0.441 1.004,-0.102 2.008,-0.149 3.015,-0.149 1.008,0 2.012,0.047 3.012,0.149 1.004,0.097 2,0.246 2.988,0.441 0.985,0.196 1.961,0.442 2.926,0.735 0.965,0.289 1.91,0.629 2.84,1.015 0.93,0.387 1.84,0.817 2.727,1.289 0.89,0.477 1.754,0.993 2.59,1.551 0.835,0.559 1.644,1.16 2.421,1.797 0.782,0.641 1.524,1.316 2.239,2.027 0.711,0.711 1.386,1.457 2.027,2.239 0.637,0.777 1.234,1.586 1.797,2.421 0.559,0.836 1.074,1.7 1.551,2.586 0.472,0.891 0.902,1.801 1.289,2.731 0.386,0.93 0.722,1.875 1.015,2.84 0.293,0.965 0.539,1.941 0.735,2.925 0.195,0.989 0.343,1.985 0.441,2.985 0.102,1.004 0.149,2.008 0.149,3.015 z" /></g><path
         id="path194"
         style="fill:#000000;fill-opacity:1;fill-rule:nonzero;stroke:none"
         d="m 31.562,113.766 -2.578,-6.782 h 1.204 l 1.453,4.063 c 0.156,0.437 0.3,0.891 0.437,1.359 0.102,-0.351 0.242,-0.781 0.422,-1.281 l 1.516,-4.141 h 1.172 l -2.563,6.782 z" /><path
         id="path196"
         style="fill:#000000;fill-opacity:1;fill-rule:nonzero;stroke:none"
         d="m 38.16,116.281 0.141,0.844 c -0.274,0.063 -0.516,0.094 -0.735,0.094 -0.343,0 -0.617,-0.055 -0.812,-0.157 -0.188,-0.113 -0.324,-0.257 -0.406,-0.437 -0.075,-0.187 -0.11,-0.566 -0.11,-1.141 v -3.25 H 35.535 V 111.5 h 0.703 v -1.406 l 0.953,-0.578 v 1.984 h 0.969 v 0.734 h -0.969 v 3.313 c 0,0.273 0.016,0.449 0.047,0.531 0.039,0.074 0.098,0.137 0.172,0.188 0.07,0.043 0.18,0.062 0.328,0.062 0.102,0 0.242,-0.016 0.422,-0.047 z" /><path
         id="path198"
         style="fill:#000000;fill-opacity:1;fill-rule:nonzero;stroke:none"
         d="m 38.715,113.844 h 2.938 v 0.953 h -2.938 z" /><path
         id="path200"
         style="fill:#000000;fill-opacity:1;fill-rule:nonzero;stroke:none"
         d="M 46.059,117.141 H 45.09 v -6.094 c -0.231,0.219 -0.531,0.437 -0.906,0.656 -0.375,0.219 -0.711,0.383 -1,0.485 v -0.922 c 0.531,-0.25 0.992,-0.551 1.39,-0.907 0.406,-0.363 0.692,-0.711 0.86,-1.047 h 0.625 z" /><g
         id="g202"><path
           id="path204"
           style="fill:none;stroke:#000000;stroke-width:0.76558602;stroke-linecap:butt;stroke-linejoin:miter;stroke-miterlimit:10;stroke-dasharray:none;stroke-opacity:1"
           d="M 60.551,89.324 95.383,63.469" /></g><g
         id="g206"><path
           id="path208"
           style="fill:#000000;fill-opacity:1;fill-rule:nonzero;stroke:#000000;stroke-width:0.76558602;stroke-linecap:butt;stroke-linejoin:miter;stroke-miterlimit:10;stroke-dasharray:none;stroke-opacity:1"
           d="m 98.625,61.066 -2.715,5.368 -0.527,-2.965 -2.68,-1.36 z" /></g><g
         id="g210"><path
           id="path212"
           style="fill:none;stroke:#000000;stroke-width:0.76558602;stroke-linecap:butt;stroke-linejoin:miter;stroke-miterlimit:10;stroke-dasharray:none;stroke-opacity:1"
           d="m 226.582,89.324 36.32,-25.929" /></g><g
         id="g214"><path
           id="path216"
           style="fill:#000000;fill-opacity:1;fill-rule:nonzero;stroke:#000000;stroke-width:0.76558602;stroke-linecap:butt;stroke-linejoin:miter;stroke-miterlimit:10;stroke-dasharray:none;stroke-opacity:1"
           d="m 266.191,61.051 -2.816,5.316 -0.473,-2.972 -2.656,-1.407 z" /></g><g
         id="g218"><path
           id="path220"
           style="fill:none;stroke:#000000;stroke-width:0.76558602;stroke-linecap:butt;stroke-linejoin:miter;stroke-miterlimit:10;stroke-dasharray:none;stroke-opacity:1"
           d="M 393.391,89.324 425.27,63.625" /></g><g
         id="g222"><path
           id="path224"
           style="fill:#000000;fill-opacity:1;fill-rule:nonzero;stroke:#000000;stroke-width:0.76558602;stroke-linecap:butt;stroke-linejoin:miter;stroke-miterlimit:10;stroke-dasharray:none;stroke-opacity:1"
           d="m 428.414,61.09 -2.5,5.472 -0.644,-2.937 -2.735,-1.254 z" /></g><g
         id="g226"><path
           id="path228"
           style="fill:none;stroke:#000000;stroke-width:0.76558602;stroke-linecap:butt;stroke-linejoin:miter;stroke-miterlimit:10;stroke-dasharray:none;stroke-opacity:1"
           d="M 560.965,89.324 588.449,63.875" /></g><g
         id="g230"><path
           id="path232"
           style="fill:#000000;fill-opacity:1;fill-rule:nonzero;stroke:#000000;stroke-width:0.76558602;stroke-linecap:butt;stroke-linejoin:miter;stroke-miterlimit:10;stroke-dasharray:none;stroke-opacity:1"
           d="m 591.414,61.133 -2.121,5.629 -0.844,-2.887 -2.812,-1.059 z" /></g><g
         id="g234"><path
           id="path236"
           style="fill:#ffffff;fill-opacity:1;fill-rule:nonzero;stroke:#000000;stroke-width:0.76558602;stroke-linecap:butt;stroke-linejoin:miter;stroke-miterlimit:4;stroke-dasharray:none;stroke-opacity:1"
           d="m 235.594,274.027 c 0,1.008 -0.051,2.012 -0.149,3.016 -0.097,1 -0.246,1.996 -0.441,2.984 -0.195,0.985 -0.442,1.961 -0.734,2.926 -0.293,0.965 -0.629,1.91 -1.016,2.84 -0.387,0.93 -0.816,1.84 -1.289,2.727 -0.477,0.89 -0.992,1.753 -1.551,2.589 -0.562,0.836 -1.16,1.645 -1.801,2.422 -0.636,0.781 -1.312,1.528 -2.023,2.239 -0.715,0.71 -1.457,1.386 -2.238,2.027 -0.778,0.637 -1.586,1.238 -2.422,1.797 -0.84,0.558 -1.7,1.074 -2.59,1.551 -0.887,0.472 -1.797,0.902 -2.727,1.289 -0.929,0.386 -1.879,0.726 -2.84,1.015 -0.964,0.293 -1.941,0.539 -2.929,0.735 -0.985,0.195 -1.981,0.343 -2.985,0.441 -1,0.102 -2.004,0.148 -3.011,0.148 -1.008,0 -2.012,-0.046 -3.016,-0.148 -1,-0.098 -1.996,-0.246 -2.984,-0.441 -0.989,-0.196 -1.961,-0.442 -2.926,-0.735 -0.965,-0.289 -1.91,-0.629 -2.84,-1.015 -0.934,-0.387 -1.84,-0.817 -2.73,-1.289 -0.887,-0.477 -1.75,-0.993 -2.586,-1.551 -0.84,-0.559 -1.645,-1.16 -2.426,-1.797 -0.778,-0.641 -1.524,-1.317 -2.235,-2.027 -0.71,-0.711 -1.386,-1.458 -2.027,-2.239 -0.637,-0.777 -1.238,-1.586 -1.797,-2.422 -0.558,-0.836 -1.078,-1.699 -1.551,-2.589 -0.476,-0.887 -0.906,-1.797 -1.289,-2.727 -0.386,-0.93 -0.726,-1.875 -1.019,-2.84 -0.289,-0.965 -0.535,-1.941 -0.731,-2.926 -0.199,-0.988 -0.343,-1.984 -0.445,-2.984 -0.098,-1.004 -0.148,-2.008 -0.148,-3.016 0,-1.007 0.05,-2.011 0.148,-3.015 0.102,-1 0.246,-1.996 0.445,-2.985 0.196,-0.984 0.442,-1.961 0.731,-2.925 0.293,-0.965 0.633,-1.911 1.019,-2.84 0.383,-0.93 0.813,-1.84 1.289,-2.731 0.473,-0.886 0.993,-1.75 1.551,-2.586 0.559,-0.836 1.16,-1.644 1.797,-2.425 0.641,-0.778 1.317,-1.524 2.027,-2.235 0.711,-0.711 1.457,-1.387 2.235,-2.027 0.781,-0.637 1.586,-1.238 2.426,-1.797 0.836,-0.559 1.699,-1.074 2.586,-1.551 0.89,-0.472 1.796,-0.906 2.73,-1.289 0.93,-0.387 1.875,-0.726 2.84,-1.016 0.965,-0.293 1.937,-0.539 2.926,-0.734 0.988,-0.195 1.984,-0.344 2.984,-0.441 1.004,-0.102 2.008,-0.149 3.016,-0.149 1.007,0 2.011,0.047 3.011,0.149 1.004,0.097 2,0.246 2.985,0.441 0.988,0.195 1.965,0.441 2.929,0.734 0.961,0.29 1.911,0.629 2.84,1.016 0.93,0.383 1.84,0.817 2.727,1.289 0.89,0.477 1.75,0.992 2.59,1.551 0.836,0.559 1.644,1.16 2.422,1.797 0.781,0.64 1.523,1.316 2.238,2.027 0.711,0.711 1.387,1.457 2.023,2.235 0.641,0.781 1.239,1.589 1.801,2.425 0.559,0.836 1.074,1.7 1.551,2.586 0.473,0.891 0.902,1.801 1.289,2.731 0.387,0.929 0.723,1.875 1.016,2.84 0.292,0.964 0.539,1.941 0.734,2.925 0.195,0.989 0.344,1.985 0.441,2.985 0.098,1.004 0.149,2.008 0.149,3.015 z" /></g><path
         id="path238"
         style="fill:#000000;fill-opacity:1;fill-rule:nonzero;stroke:none"
         d="m 198.414,276.727 v -0.938 l 4.313,-4.937 c -0.493,0.023 -0.922,0.031 -1.297,0.031 h -2.75 v -0.938 h 5.531 v 0.766 l -3.672,4.297 -0.703,0.781 c 0.508,-0.031 0.992,-0.047 1.453,-0.047 h 3.125 v 0.985 z" /><path
         id="path240"
         style="fill:#000000;fill-opacity:1;fill-rule:nonzero;stroke:none"
         d="m 208.762,280.102 h -0.969 v -6.094 c -0.231,0.219 -0.531,0.437 -0.906,0.656 -0.375,0.219 -0.711,0.383 -1,0.484 v -0.921 c 0.531,-0.25 0.992,-0.551 1.39,-0.907 0.407,-0.363 0.692,-0.711 0.86,-1.047 h 0.625 z" /><g
         id="g242"><path
           id="path244"
           style="fill:#ffffff;fill-opacity:1;fill-rule:nonzero;stroke:#000000;stroke-width:0.76558602;stroke-linecap:butt;stroke-linejoin:miter;stroke-miterlimit:4;stroke-dasharray:none;stroke-opacity:1"
           d="m 481.574,274.793 c 0,1.008 -0.051,2.012 -0.148,3.012 -0.102,1.004 -0.246,2 -0.446,2.988 -0.195,0.984 -0.441,1.961 -0.73,2.926 -0.293,0.965 -0.633,1.91 -1.02,2.84 -0.382,0.929 -0.812,1.839 -1.289,2.726 -0.472,0.891 -0.992,1.754 -1.55,2.59 -0.559,0.836 -1.161,1.645 -1.797,2.422 -0.641,0.781 -1.317,1.527 -2.028,2.238 -0.711,0.711 -1.457,1.387 -2.234,2.027 -0.781,0.637 -1.586,1.239 -2.426,1.797 -0.836,0.559 -1.699,1.075 -2.586,1.551 -0.89,0.473 -1.797,0.902 -2.73,1.289 -0.93,0.387 -1.875,0.727 -2.84,1.016 -0.965,0.293 -1.938,0.539 -2.926,0.734 -0.988,0.196 -1.984,0.344 -2.984,0.442 -1.004,0.101 -2.008,0.148 -3.016,0.148 -1.008,0 -2.012,-0.047 -3.012,-0.148 -1.003,-0.098 -2,-0.246 -2.984,-0.442 -0.988,-0.195 -1.965,-0.441 -2.93,-0.734 -0.96,-0.289 -1.91,-0.629 -2.839,-1.016 -0.93,-0.387 -1.84,-0.816 -2.727,-1.289 -0.891,-0.476 -1.75,-0.992 -2.59,-1.551 -0.836,-0.558 -1.644,-1.16 -2.422,-1.797 -0.781,-0.64 -1.523,-1.316 -2.238,-2.027 -0.711,-0.711 -1.387,-1.457 -2.023,-2.238 -0.641,-0.777 -1.239,-1.586 -1.801,-2.422 -0.559,-0.836 -1.074,-1.699 -1.551,-2.59 -0.473,-0.887 -0.902,-1.797 -1.289,-2.726 -0.387,-0.93 -0.723,-1.875 -1.016,-2.84 -0.293,-0.965 -0.539,-1.942 -0.734,-2.926 -0.195,-0.988 -0.344,-1.984 -0.441,-2.988 -0.098,-1 -0.149,-2.004 -0.149,-3.012 0,-1.008 0.051,-2.012 0.149,-3.016 0.097,-1 0.246,-1.996 0.441,-2.984 0.195,-0.984 0.441,-1.961 0.734,-2.926 0.293,-0.965 0.629,-1.91 1.016,-2.84 0.387,-0.929 0.816,-1.839 1.289,-2.73 0.477,-0.887 0.992,-1.75 1.551,-2.586 0.562,-0.836 1.16,-1.645 1.801,-2.426 0.636,-0.777 1.312,-1.523 2.023,-2.234 0.715,-0.711 1.457,-1.387 2.238,-2.028 0.778,-0.636 1.586,-1.238 2.422,-1.796 0.84,-0.559 1.699,-1.075 2.59,-1.551 0.887,-0.473 1.797,-0.906 2.727,-1.289 0.929,-0.387 1.879,-0.727 2.839,-1.016 0.965,-0.293 1.942,-0.539 2.93,-0.734 0.984,-0.196 1.981,-0.344 2.984,-0.442 1,-0.101 2.004,-0.148 3.012,-0.148 1.008,0 2.012,0.047 3.016,0.148 1,0.098 1.996,0.246 2.984,0.442 0.988,0.195 1.961,0.441 2.926,0.734 0.965,0.289 1.91,0.629 2.84,1.016 0.933,0.383 1.84,0.816 2.73,1.289 0.887,0.476 1.75,0.992 2.586,1.551 0.84,0.558 1.645,1.16 2.426,1.796 0.777,0.641 1.523,1.317 2.234,2.028 0.711,0.711 1.387,1.457 2.028,2.234 0.636,0.781 1.238,1.59 1.797,2.426 0.558,0.836 1.078,1.699 1.55,2.586 0.477,0.891 0.907,1.801 1.289,2.73 0.387,0.93 0.727,1.875 1.02,2.84 0.289,0.965 0.535,1.942 0.73,2.926 0.2,0.988 0.344,1.984 0.446,2.984 0.097,1.004 0.148,2.008 0.148,3.016 z" /></g><path
         id="path246"
         style="fill:#000000;fill-opacity:1;fill-rule:nonzero;stroke:none"
         d="m 444.391,277.496 v -0.937 l 4.312,-4.938 c -0.492,0.024 -0.922,0.031 -1.297,0.031 h -2.75 v -0.937 h 5.532 v 0.765 l -3.672,4.297 -0.704,0.782 c 0.508,-0.032 0.993,-0.047 1.454,-0.047 h 3.125 v 0.984 z" /><path
         id="path248"
         style="fill:#000000;fill-opacity:1;fill-rule:nonzero;stroke:none"
         d="m 456.16,279.949 v 0.922 h -5.156 c -0.012,-0.226 0.023,-0.453 0.109,-0.672 0.133,-0.344 0.344,-0.687 0.625,-1.031 0.289,-0.344 0.711,-0.734 1.266,-1.172 0.844,-0.695 1.41,-1.25 1.703,-1.656 0.301,-0.406 0.453,-0.789 0.453,-1.156 0,-0.375 -0.137,-0.692 -0.406,-0.954 -0.274,-0.257 -0.625,-0.39 -1.063,-0.39 -0.461,0 -0.828,0.14 -1.109,0.422 -0.273,0.273 -0.406,0.652 -0.406,1.14 l -0.985,-0.109 c 0.063,-0.727 0.313,-1.285 0.75,-1.672 0.446,-0.383 1.039,-0.578 1.782,-0.578 0.738,0 1.328,0.211 1.765,0.625 0.438,0.418 0.657,0.934 0.657,1.547 0,0.305 -0.063,0.605 -0.188,0.906 -0.125,0.305 -0.34,0.621 -0.641,0.953 -0.293,0.336 -0.781,0.793 -1.468,1.375 -0.575,0.481 -0.946,0.809 -1.11,0.985 -0.168,0.168 -0.304,0.339 -0.406,0.515 z" /><g
         id="g250"><path
           id="path252"
           style="fill:#ffffff;fill-opacity:1;fill-rule:nonzero;stroke:#000000;stroke-width:0.76558602;stroke-linecap:butt;stroke-linejoin:miter;stroke-miterlimit:4;stroke-dasharray:none;stroke-opacity:1"
           d="m 644.531,274.793 c 0,1.008 -0.051,2.012 -0.148,3.012 -0.102,1.004 -0.246,2 -0.445,2.988 -0.196,0.984 -0.438,1.961 -0.731,2.926 -0.293,0.965 -0.633,1.91 -1.019,2.84 -0.383,0.929 -0.813,1.839 -1.29,2.726 -0.472,0.891 -0.992,1.754 -1.55,2.59 -0.559,0.836 -1.16,1.645 -1.797,2.422 -0.641,0.781 -1.317,1.527 -2.028,2.238 -0.711,0.711 -1.457,1.387 -2.234,2.027 -0.777,0.637 -1.586,1.239 -2.426,1.797 -0.836,0.559 -1.699,1.075 -2.586,1.551 -0.89,0.473 -1.797,0.902 -2.73,1.289 -0.93,0.387 -1.875,0.727 -2.84,1.016 -0.961,0.293 -1.937,0.539 -2.926,0.734 -0.988,0.196 -1.984,0.344 -2.984,0.442 -1.004,0.101 -2.008,0.148 -3.016,0.148 -1.008,0 -2.011,-0.047 -3.011,-0.148 -1.004,-0.098 -1.997,-0.246 -2.985,-0.442 -0.988,-0.195 -1.965,-0.441 -2.93,-0.734 -0.96,-0.289 -1.91,-0.629 -2.839,-1.016 -0.93,-0.387 -1.84,-0.816 -2.727,-1.289 -0.891,-0.476 -1.75,-0.992 -2.59,-1.551 -0.836,-0.558 -1.644,-1.16 -2.422,-1.797 -0.781,-0.64 -1.523,-1.316 -2.238,-2.027 -0.711,-0.711 -1.387,-1.457 -2.023,-2.238 -0.641,-0.777 -1.239,-1.586 -1.797,-2.422 -0.563,-0.836 -1.078,-1.699 -1.555,-2.59 -0.473,-0.887 -0.902,-1.797 -1.289,-2.726 -0.387,-0.93 -0.723,-1.875 -1.016,-2.84 -0.293,-0.965 -0.535,-1.942 -0.734,-2.926 -0.195,-0.988 -0.344,-1.984 -0.441,-2.988 -0.098,-1 -0.149,-2.004 -0.149,-3.012 0,-1.008 0.051,-2.012 0.149,-3.016 0.097,-1 0.246,-1.996 0.441,-2.984 0.199,-0.984 0.441,-1.961 0.734,-2.926 0.293,-0.965 0.629,-1.91 1.016,-2.84 0.387,-0.929 0.816,-1.839 1.289,-2.73 0.477,-0.887 0.992,-1.75 1.555,-2.586 0.558,-0.836 1.156,-1.645 1.797,-2.426 0.636,-0.777 1.312,-1.523 2.023,-2.234 0.715,-0.711 1.457,-1.387 2.238,-2.028 0.778,-0.636 1.586,-1.238 2.422,-1.796 0.84,-0.559 1.699,-1.075 2.59,-1.551 0.887,-0.473 1.797,-0.906 2.727,-1.289 0.929,-0.387 1.879,-0.727 2.839,-1.016 0.965,-0.293 1.942,-0.539 2.93,-0.734 0.988,-0.196 1.981,-0.344 2.985,-0.442 1,-0.101 2.003,-0.148 3.011,-0.148 1.008,0 2.012,0.047 3.016,0.148 1,0.098 1.996,0.246 2.984,0.442 0.989,0.195 1.965,0.441 2.926,0.734 0.965,0.289 1.91,0.629 2.84,1.016 0.933,0.383 1.84,0.816 2.73,1.289 0.887,0.476 1.75,0.992 2.586,1.551 0.84,0.558 1.649,1.16 2.426,1.796 0.777,0.641 1.523,1.317 2.234,2.028 0.711,0.711 1.387,1.457 2.028,2.234 0.637,0.781 1.238,1.59 1.797,2.426 0.558,0.836 1.078,1.699 1.55,2.586 0.477,0.891 0.907,1.801 1.29,2.73 0.386,0.93 0.726,1.875 1.019,2.84 0.293,0.965 0.535,1.942 0.731,2.926 0.199,0.988 0.343,1.984 0.445,2.984 0.097,1.004 0.148,2.008 0.148,3.016 z" /></g><path
         id="path254"
         style="fill:#000000;fill-opacity:1;fill-rule:nonzero;stroke:none"
         d="m 608.289,278.262 v -0.938 l 4.313,-4.937 c -0.493,0.023 -0.922,0.031 -1.297,0.031 h -2.75 v -0.938 h 5.531 v 0.766 l -3.672,4.297 -0.703,0.781 c 0.508,-0.031 0.992,-0.047 1.453,-0.047 h 3.125 v 0.985 z" /><path
         id="path256"
         style="fill:#000000;fill-opacity:1;fill-rule:nonzero;stroke:none"
         d="m 614.887,279.422 0.672,-0.094 c 0.07,0.375 0.195,0.649 0.375,0.813 0.187,0.168 0.414,0.25 0.687,0.25 0.313,0 0.57,-0.11 0.781,-0.329 0.219,-0.218 0.328,-0.484 0.328,-0.796 0,-0.313 -0.101,-0.567 -0.296,-0.766 -0.2,-0.195 -0.454,-0.297 -0.766,-0.297 -0.125,0 -0.281,0.027 -0.469,0.078 l 0.078,-0.578 c 0.039,0 0.078,0 0.11,0 0.281,0 0.531,-0.07 0.75,-0.219 0.226,-0.144 0.343,-0.375 0.343,-0.687 0,-0.238 -0.085,-0.438 -0.25,-0.594 -0.156,-0.164 -0.367,-0.25 -0.625,-0.25 -0.261,0 -0.48,0.086 -0.656,0.25 -0.168,0.156 -0.277,0.399 -0.328,0.719 l -0.656,-0.11 c 0.07,-0.445 0.254,-0.789 0.547,-1.031 0.289,-0.25 0.648,-0.375 1.078,-0.375 0.289,0 0.562,0.063 0.812,0.188 0.25,0.125 0.438,0.304 0.563,0.531 0.133,0.219 0.203,0.449 0.203,0.687 0,0.243 -0.063,0.454 -0.188,0.641 -0.125,0.188 -0.312,0.34 -0.562,0.453 0.32,0.074 0.57,0.231 0.75,0.469 0.176,0.23 0.266,0.523 0.266,0.875 0,0.469 -0.172,0.871 -0.516,1.203 -0.344,0.324 -0.781,0.485 -1.313,0.485 -0.468,0 -0.859,-0.141 -1.171,-0.422 -0.313,-0.282 -0.496,-0.645 -0.547,-1.094 z" /><g
         id="g258"><path
           id="path260"
           style="fill:none;stroke:#000000;stroke-width:0.76558602;stroke-linecap:butt;stroke-linejoin:miter;stroke-miterlimit:10;stroke-dasharray:none;stroke-opacity:1"
           d="m 226.582,252.281 37.441,-51.707" /></g><g
         id="g262"><path
           id="path264"
           style="fill:#000000;fill-opacity:1;fill-rule:nonzero;stroke:#000000;stroke-width:0.76558602;stroke-linecap:butt;stroke-linejoin:miter;stroke-miterlimit:10;stroke-dasharray:none;stroke-opacity:1"
           d="m 266.387,197.305 -0.977,5.937 -1.387,-2.668 -2.972,-0.484 z" /></g><g
         id="g266"><path
           id="path268"
           style="fill:none;stroke:#000000;stroke-width:0.76558602;stroke-linecap:butt;stroke-linejoin:miter;stroke-miterlimit:10;stroke-dasharray:none;stroke-opacity:1"
           d="m 183.102,252.281 -37.43,-51.707" /></g><g
         id="g270"><path
           id="path272"
           style="fill:#000000;fill-opacity:1;fill-rule:nonzero;stroke:#000000;stroke-width:0.76558602;stroke-linecap:butt;stroke-linejoin:miter;stroke-miterlimit:10;stroke-dasharray:none;stroke-opacity:1"
           d="m 143.309,197.305 5.328,2.785 -2.965,0.484 -1.391,2.668 z" /></g><g
         id="g274"><path
           id="path276"
           style="fill:none;stroke:#000000;stroke-width:0.76558602;stroke-linecap:butt;stroke-linejoin:miter;stroke-miterlimit:10;stroke-dasharray:none;stroke-opacity:1"
           d="M 450.824,244.051 V 210.508" /></g><g
         id="g278"><path
           id="path280"
           style="fill:#000000;fill-opacity:1;fill-rule:nonzero;stroke:#000000;stroke-width:0.76558602;stroke-linecap:butt;stroke-linejoin:miter;stroke-miterlimit:10;stroke-dasharray:none;stroke-opacity:1"
           d="m 450.824,206.477 2.688,5.378 -2.688,-1.347 -2.695,1.347 z" /></g><g
         id="g282"><path
           id="path284"
           style="fill:none;stroke:#000000;stroke-width:0.76558602;stroke-linecap:butt;stroke-linejoin:miter;stroke-miterlimit:10;stroke-dasharray:none;stroke-opacity:1"
           d="M 613.781,244.051 V 210.508" /></g><g
         id="g286"><path
           id="path288"
           style="fill:#000000;fill-opacity:1;fill-rule:nonzero;stroke:#000000;stroke-width:0.76558602;stroke-linecap:butt;stroke-linejoin:miter;stroke-miterlimit:10;stroke-dasharray:none;stroke-opacity:1"
           d="m 613.781,206.477 2.696,5.378 -2.696,-1.347 -2.687,1.347 z" /></g></g></g></svg>