<?xml version="1.0" encoding="UTF-8" standalone="no"?>
<svg
   xmlns:dc="http://purl.org/dc/elements/1.1/"
   xmlns:cc="http://creativecommons.org/ns#"
   xmlns:rdf="http://www.w3.org/1999/02/22-rdf-syntax-ns#"
   xmlns:svg="http://www.w3.org/2000/svg"
   xmlns="http://www.w3.org/2000/svg"
   viewBox="0 0 272 258.56"
   height="258.56"
   width="272"
   xml:space="preserve"
   id="svg2"
   version="1.1"><metadata
     id="metadata8"><rdf:RDF><cc:Work
         rdf:about=""><dc:format>image/svg+xml</dc:format><dc:type
           rdf:resource="http://purl.org/dc/dcmitype/StillImage" /></cc:Work></rdf:RDF></metadata><defs
     id="defs6" /><g
     transform="matrix(1.3333333,0,0,1.3333333,0,9.1306666e-6)"
     id="g10"><g
       id="g12"><g
         id="g14"><path
           id="path16"
           style="fill:none;stroke:#000000;stroke-width:0.8175;stroke-linecap:butt;stroke-linejoin:miter;stroke-miterlimit:10;stroke-dasharray:none;stroke-opacity:1"
           d="m 185.488,14.992 2.387,-2.39" /></g><path
         id="path18"
         style="fill:#000000;fill-opacity:1;fill-rule:nonzero;stroke:none"
         d="m 23.09,125.543 v -6.172 h -2.297 v -0.828 h 5.547 v 0.828 h -2.313 v 6.172 z" /><path
         id="path20"
         style="fill:#000000;fill-opacity:1;fill-rule:nonzero;stroke:none"
         d="m 26.812,125.543 v -5.078 h 0.766 v 0.781 c 0.195,-0.363 0.379,-0.601 0.547,-0.719 0.164,-0.113 0.348,-0.172 0.547,-0.172 0.289,0 0.586,0.094 0.89,0.282 l -0.296,0.797 c -0.211,-0.125 -0.418,-0.188 -0.625,-0.188 -0.188,0 -0.36,0.059 -0.516,0.172 -0.148,0.117 -0.25,0.273 -0.313,0.469 -0.093,0.304 -0.14,0.636 -0.14,1 v 2.656 z" /><path
         id="path22"
         style="fill:#000000;fill-opacity:1;fill-rule:nonzero;stroke:none"
         d="m 33.383,124.918 c -0.313,0.273 -0.621,0.465 -0.922,0.578 -0.293,0.102 -0.606,0.156 -0.938,0.156 -0.562,0 -0.996,-0.132 -1.296,-0.406 -0.293,-0.269 -0.438,-0.617 -0.438,-1.047 0,-0.238 0.051,-0.461 0.156,-0.672 0.114,-0.207 0.258,-0.375 0.438,-0.5 0.187,-0.125 0.394,-0.218 0.625,-0.281 0.176,-0.039 0.43,-0.082 0.765,-0.125 0.696,-0.082 1.211,-0.18 1.547,-0.297 0,-0.113 0,-0.187 0,-0.219 0,-0.351 -0.086,-0.601 -0.25,-0.75 -0.218,-0.187 -0.543,-0.281 -0.968,-0.281 -0.407,0 -0.711,0.074 -0.907,0.219 -0.187,0.137 -0.328,0.383 -0.422,0.734 l -0.843,-0.109 c 0.07,-0.363 0.195,-0.656 0.375,-0.875 0.175,-0.219 0.429,-0.383 0.765,-0.5 0.332,-0.125 0.719,-0.188 1.157,-0.188 0.425,0 0.773,0.055 1.046,0.157 0.27,0.105 0.469,0.234 0.594,0.39 0.125,0.149 0.211,0.34 0.266,0.578 0.031,0.149 0.047,0.415 0.047,0.797 v 1.141 c 0,0.805 0.015,1.309 0.047,1.516 0.039,0.211 0.117,0.414 0.234,0.609 h -0.906 c -0.086,-0.176 -0.141,-0.383 -0.172,-0.625 z m -0.063,-1.922 c -0.312,0.125 -0.781,0.234 -1.406,0.328 -0.355,0.055 -0.605,0.11 -0.75,0.172 -0.148,0.063 -0.262,0.156 -0.344,0.281 -0.086,0.125 -0.125,0.262 -0.125,0.407 0,0.23 0.086,0.421 0.266,0.578 0.176,0.148 0.43,0.218 0.766,0.218 0.332,0 0.625,-0.07 0.875,-0.218 0.257,-0.145 0.453,-0.344 0.578,-0.594 0.093,-0.188 0.14,-0.473 0.14,-0.859 z" /><path
         id="path24"
         style="fill:#000000;fill-opacity:1;fill-rule:nonzero;stroke:none"
         d="m 38.824,123.684 0.844,0.109 c -0.094,0.586 -0.336,1.043 -0.719,1.375 -0.375,0.324 -0.84,0.484 -1.39,0.484 -0.7,0 -1.262,-0.222 -1.688,-0.672 -0.418,-0.457 -0.625,-1.109 -0.625,-1.953 0,-0.55 0.086,-1.031 0.266,-1.437 0.187,-0.414 0.468,-0.723 0.843,-0.922 0.375,-0.207 0.774,-0.313 1.204,-0.313 0.55,0 1.003,0.141 1.359,0.422 0.352,0.282 0.578,0.68 0.672,1.188 l -0.828,0.125 c -0.086,-0.344 -0.231,-0.598 -0.438,-0.766 -0.199,-0.176 -0.437,-0.265 -0.719,-0.265 -0.437,0 -0.793,0.156 -1.062,0.468 -0.273,0.313 -0.406,0.805 -0.406,1.469 0,0.688 0.129,1.188 0.39,1.5 0.258,0.305 0.598,0.453 1.016,0.453 0.344,0 0.625,-0.101 0.844,-0.312 0.226,-0.207 0.375,-0.524 0.437,-0.953 z" /><path
         id="path26"
         style="fill:#000000;fill-opacity:1;fill-rule:nonzero;stroke:none"
         d="m 40.418,125.543 v -7 h 0.859 v 3.984 l 2.032,-2.062 h 1.109 l -1.938,1.89 2.141,3.188 h -1.062 l -1.688,-2.594 -0.594,0.578 v 2.016 z" /><g
         id="g28"><path
           id="path30"
           style="fill:none;stroke:#000000;stroke-width:0.8175;stroke-linecap:butt;stroke-linejoin:miter;stroke-miterlimit:10;stroke-dasharray:none;stroke-opacity:1"
           d="M 49.289,118.582 173.203,25.648" /></g><path
         id="path32"
         style="fill:#009400;fill-opacity:1;fill-rule:nonzero;stroke:none"
         d="m 187.875,20.754 c 0,0.535 -0.051,1.062 -0.156,1.59 -0.106,0.523 -0.262,1.035 -0.465,1.527 -0.203,0.496 -0.457,0.965 -0.754,1.41 -0.297,0.446 -0.633,0.856 -1.012,1.235 -0.379,0.379 -0.793,0.718 -1.238,1.015 -0.445,0.297 -0.914,0.547 -1.406,0.754 -0.496,0.203 -1.008,0.36 -1.532,0.461 -0.523,0.106 -1.054,0.16 -1.589,0.16 -0.535,0 -1.067,-0.054 -1.59,-0.16 -0.528,-0.101 -1.035,-0.258 -1.531,-0.461 -0.493,-0.207 -0.965,-0.457 -1.407,-0.754 -0.445,-0.297 -0.859,-0.636 -1.238,-1.015 -0.379,-0.379 -0.715,-0.789 -1.012,-1.235 -0.297,-0.445 -0.55,-0.914 -0.754,-1.41 -0.207,-0.492 -0.359,-1.004 -0.464,-1.527 -0.106,-0.528 -0.157,-1.055 -0.157,-1.59 0,-0.535 0.051,-1.066 0.157,-1.594 0.105,-0.523 0.257,-1.031 0.464,-1.527 0.204,-0.496 0.457,-0.965 0.754,-1.41 0.297,-0.446 0.633,-0.856 1.012,-1.235 0.379,-0.379 0.793,-0.715 1.238,-1.015 0.442,-0.297 0.914,-0.547 1.407,-0.75 0.496,-0.207 1.003,-0.36 1.531,-0.465 0.523,-0.106 1.055,-0.156 1.59,-0.156 0.535,0 1.066,0.05 1.589,0.156 0.524,0.105 1.036,0.258 1.532,0.465 0.492,0.203 0.961,0.453 1.406,0.75 0.445,0.3 0.859,0.636 1.238,1.015 0.379,0.379 0.715,0.789 1.012,1.235 0.297,0.445 0.551,0.914 0.754,1.41 0.203,0.496 0.359,1.004 0.465,1.527 0.105,0.528 0.156,1.059 0.156,1.594 z" /><g
         transform="matrix(1,-0.700207,0.700207,1,0,0)"
         id="g34"><path
           id="path36"
           style="fill:none;stroke:#000000;stroke-width:0.66965699;stroke-linecap:butt;stroke-linejoin:miter;stroke-miterlimit:4;stroke-dasharray:none;stroke-opacity:1"
           d="m -2.467,161.429 20.034,0.001 0.001,6.676 -20.036,0.002 z" /></g><g
         transform="matrix(0.267949,-1,1,0.267949,0,0)"
         id="g38"><path
           id="path40"
           style="fill:none;stroke:#000000;stroke-width:0.789644;stroke-linecap:butt;stroke-linejoin:miter;stroke-miterlimit:4;stroke-dasharray:none;stroke-opacity:1"
           d="m -89.636,191.49 24.195,-0.002 v 7.129 l -24.195,0.002 z" /></g><g
         id="g42"><path
           id="path44"
           style="fill:none;stroke:#000000;stroke-width:0.8175;stroke-linecap:butt;stroke-linejoin:miter;stroke-miterlimit:10;stroke-dasharray:none;stroke-opacity:1"
           d="m 132.938,152.469 37.777,-23.617" /></g><path
         id="path46"
         style="fill:#000000;fill-opacity:1;fill-rule:nonzero;stroke:none"
         d="m 138.027,175.867 -1.187,-1.113 1.113,-1.188 1.188,1.114 m -5.871,-3.27 -1.192,-1.113 1.113,-1.188 1.192,1.114 m -5.875,-3.27 -1.192,-1.113 1.114,-1.188 1.191,1.114" /><path
         id="path48"
         style="fill:#000000;fill-opacity:1;fill-rule:nonzero;stroke:none"
         d="m 186.871,143.18 -1.031,-1.262 1.258,-1.031 1.031,1.265 m -5.383,-4.023 -1.031,-1.266 1.262,-1.027 1.031,1.262 m -5.387,-4.024 -1.031,-1.262 1.262,-1.031 1.031,1.266" /><g
         id="g50"><path
           id="path52"
           style="fill:none;stroke:#000000;stroke-width:0.8175;stroke-linecap:butt;stroke-linejoin:miter;stroke-miterlimit:10;stroke-dasharray:none;stroke-opacity:1"
           d="m 143.281,172.77 40.274,-26.848" /></g><g
         id="g54"><path
           id="path56"
           style="fill:#000000;fill-opacity:1;fill-rule:nonzero;stroke:#000000;stroke-width:0.8175;stroke-linecap:butt;stroke-linejoin:miter;stroke-miterlimit:10;stroke-dasharray:none;stroke-opacity:1"
           d="m 139.719,175.141 3.164,-5.536 0.398,3.165 2.766,1.582 z" /></g><g
         id="g58"><path
           id="path60"
           style="fill:#000000;fill-opacity:1;fill-rule:nonzero;stroke:#000000;stroke-width:0.8175;stroke-linecap:butt;stroke-linejoin:miter;stroke-miterlimit:10;stroke-dasharray:none;stroke-opacity:1"
           d="m 187.117,143.543 -3.164,5.543 -0.398,-3.164 -2.766,-1.586 z" /></g><path
         id="path62"
         style="fill:#000000;fill-opacity:1;fill-rule:nonzero;stroke:none"
         d="m 165.926,167.934 v -7 h 0.922 v 6.171 h 3.453 v 0.829 z" /><g
         id="g64"><path
           id="path66"
           style="fill:none;stroke:#000000;stroke-width:0.8175;stroke-linecap:butt;stroke-linejoin:miter;stroke-miterlimit:4;stroke-dasharray:none;stroke-opacity:1"
           d="m 123.809,159.488 c 0,0.242 -0.086,0.453 -0.258,0.625 -0.172,0.172 -0.383,0.258 -0.625,0.258 -0.246,0 -0.453,-0.086 -0.625,-0.258 -0.176,-0.172 -0.262,-0.383 -0.262,-0.625 0,-0.246 0.086,-0.453 0.262,-0.625 0.172,-0.175 0.379,-0.261 0.625,-0.261 0.242,0 0.453,0.086 0.625,0.261 0.172,0.172 0.258,0.379 0.258,0.625 z" /></g><path
         id="path68"
         style="fill:#000000;fill-opacity:1;fill-rule:nonzero;stroke:none"
         d="m 122.418,158.176 0.609,-1.512 1.512,0.613 -0.613,1.512 m 0.933,-6.66 0.614,-1.512 1.507,0.61 -0.609,1.511 m 0.934,-6.656 0.609,-1.512 1.508,0.61 -0.61,1.511 m 0.934,-6.656 0.609,-1.512 1.512,0.61 -0.613,1.512 m 0.934,-6.657 0.613,-1.511 1.508,0.609 -0.61,1.512 m 0.934,-6.657 0.609,-1.511 1.508,0.609 -0.609,1.512 m 0.933,-6.656 0.61,-1.512 1.507,0.609 -0.609,1.512 m 0.934,-6.656 0.609,-1.512 1.512,0.609 -0.614,1.512 m 0.934,-6.656 0.613,-1.512 1.508,0.609 -0.609,1.512 m 0.933,-6.656 0.61,-1.512 1.508,0.61 -0.61,1.511 m 0.934,-6.656 0.609,-1.512 1.512,0.61 -0.613,1.511 m 0.933,-6.656 0.613,-1.512 1.508,0.61 -0.609,1.512 m 0.933,-6.657 0.61,-1.511 1.508,0.609 -0.61,1.512 m 0.934,-6.657 0.609,-1.511 1.512,0.609 -0.613,1.512 m 0.933,-6.656 0.614,-1.512 1.507,0.609 -0.609,1.512 m 0.934,-6.656 0.609,-1.512 1.508,0.609 -0.61,1.512 m 0.934,-6.656 0.609,-1.512 1.512,0.609 -0.613,1.512 m 0.933,-6.656 0.614,-1.512 1.507,0.61 -0.609,1.511 m 0.934,-6.656 0.609,-1.512 1.508,0.61 -0.609,1.511 m 0.933,-6.656 0.61,-1.512 1.507,0.61 -0.609,1.512 m 0.934,-6.657 0.609,-1.511 1.512,0.609 -0.614,1.512 m 0.934,-6.657 0.613,-1.511 1.508,0.609 -0.609,1.512" /><path
         id="path70"
         style="fill:#000000;fill-opacity:1;fill-rule:nonzero;stroke:none"
         d="m 121.242,158.934 -0.902,-1.356 1.351,-0.902 0.907,1.355 m -4.973,-4.523 -0.902,-1.36 1.355,-0.902 0.902,1.359 m -4.968,-4.527 -0.907,-1.355 1.356,-0.903 0.902,1.356 m -4.968,-4.524 -0.907,-1.355 1.356,-0.906 0.906,1.359 m -4.973,-4.527 -0.902,-1.356 1.352,-0.902 0.906,1.355 m -4.973,-4.523 -0.902,-1.356 1.355,-0.902 0.903,1.356 m -4.969,-4.524 -0.906,-1.359 1.355,-0.903 0.902,1.36 m -4.968,-4.528 -0.907,-1.355 1.356,-0.902 0.902,1.355 m -4.969,-4.523 -0.902,-1.356 1.352,-0.902 0.906,1.355 m -4.973,-4.523 -0.902,-1.36 1.352,-0.902 0.906,1.36 m -4.973,-4.528 -0.902,-1.355 1.355,-0.903 0.903,1.356 m -4.969,-4.524 -0.906,-1.359 1.355,-0.902 0.902,1.359 m -4.968,-4.527 -0.907,-1.356 1.356,-0.902 0.906,1.355 m -4.973,-4.523 -0.902,-1.356 1.352,-0.902 0.906,1.356 m -4.973,-4.524 -0.902,-1.359 1.355,-0.903 0.903,1.36 M 67,77.523 l -0.906,-1.355 1.355,-0.902 0.903,1.355 m -4.969,-4.523 -0.906,-1.356 1.355,-0.906 0.906,1.359 m -4.972,-4.527 -0.903,-1.356 1.352,-0.902 0.906,1.356 m -4.973,-4.524 -0.902,-1.355 1.356,-0.903 0.902,1.356 m -4.973,-4.524 -0.902,-1.359 1.355,-0.902 0.903,1.359 m -4.969,-4.527 -0.906,-1.356 1.355,-0.902 0.903,1.355 m -4.969,-4.523 -0.906,-1.356 1.355,-0.902 0.906,1.356 m -4.972,-4.524 -0.903,-1.359 1.352,-0.903 0.906,1.36" /><path
         id="path72"
         style="fill:#000000;fill-opacity:1;fill-rule:nonzero;stroke:none"
         d="m 40.66,35.875 1.621,-0.203 0.199,1.617 -1.617,0.199 m 6.27,-2.422 1.617,-0.203 0.203,1.617 -1.617,0.2 m 6.269,-2.422 1.618,-0.203 0.203,1.613 -1.621,0.203 m 6.269,-2.422 1.621,-0.203 0.2,1.613 -1.618,0.203 m 6.27,-2.421 1.617,-0.203 0.203,1.613 -1.617,0.203 m 6.27,-2.422 1.617,-0.203 0.203,1.613 -1.621,0.203 m 6.269,-2.425 1.621,-0.2 0.2,1.614 -1.618,0.203 m 6.27,-2.426 1.617,-0.199 0.203,1.613 -1.617,0.203 m 6.27,-2.426 1.617,-0.203 0.203,1.617 -1.621,0.204 m 6.269,-2.426 1.621,-0.203 0.2,1.617 -1.618,0.203 m 6.27,-2.426 1.617,-0.203 0.203,1.617 -1.617,0.199 m 6.27,-2.421 1.617,-0.204 0.203,1.618 -1.621,0.199 m 6.269,-2.422 1.622,-0.203 0.199,1.617 -1.617,0.199 m 6.269,-2.422 1.617,-0.203 0.203,1.614 -1.617,0.203 m 6.27,-2.422 1.617,-0.203 0.203,1.613 -1.621,0.203 m 6.269,-2.422 1.622,-0.203 0.199,1.613 -1.617,0.203 m 6.269,-2.425 1.617,-0.2 0.203,1.614 -1.617,0.203 m 6.27,-2.426 1.617,-0.199 0.203,1.613 -1.621,0.203 m 6.27,-2.426 1.621,-0.199 0.199,1.614 -1.617,0.203 m 6.269,-2.426 1.617,-0.203 0.204,1.617 -1.618,0.203 m 6.27,-2.426 1.004,-0.125 0.203,1.614 -1.008,0.128" /><path
         id="path74"
         style="fill:#000000;fill-opacity:1;fill-rule:nonzero;stroke:none"
         d="m 107.277,23.641 v -7 h 3.11 c 0.625,0 1.097,0.062 1.422,0.187 0.32,0.125 0.578,0.352 0.765,0.672 0.196,0.312 0.297,0.664 0.297,1.047 0,0.5 -0.164,0.922 -0.484,1.265 -0.313,0.336 -0.809,0.547 -1.485,0.641 0.25,0.117 0.438,0.231 0.563,0.344 0.269,0.25 0.523,0.562 0.765,0.937 l 1.219,1.907 h -1.156 l -0.938,-1.453 c -0.273,-0.426 -0.496,-0.75 -0.671,-0.969 -0.168,-0.219 -0.325,-0.367 -0.469,-0.453 -0.137,-0.094 -0.277,-0.161 -0.422,-0.204 -0.105,-0.019 -0.277,-0.031 -0.516,-0.031 h -1.062 v 3.11 z m 0.938,-3.907 h 1.984 c 0.426,0 0.754,-0.039 0.985,-0.125 0.238,-0.093 0.421,-0.234 0.546,-0.421 0.125,-0.196 0.188,-0.411 0.188,-0.641 0,-0.332 -0.121,-0.602 -0.359,-0.813 -0.243,-0.218 -0.621,-0.328 -1.141,-0.328 h -2.203 z" /><path
         id="path76"
         style="fill:#000000;fill-opacity:1;fill-rule:nonzero;stroke:none"
         d="m 58.367,92.934 v -7 h 3.11 c 0.625,0 1.097,0.062 1.421,0.187 0.321,0.125 0.579,0.352 0.766,0.672 0.195,0.312 0.297,0.664 0.297,1.047 0,0.5 -0.164,0.922 -0.484,1.265 -0.313,0.336 -0.809,0.547 -1.485,0.641 0.25,0.117 0.438,0.231 0.563,0.344 0.269,0.25 0.523,0.562 0.765,0.937 l 1.219,1.907 H 63.383 L 62.445,91.48 c -0.273,-0.425 -0.496,-0.75 -0.672,-0.968 -0.168,-0.219 -0.324,-0.367 -0.468,-0.453 -0.137,-0.094 -0.278,-0.161 -0.422,-0.204 -0.106,-0.019 -0.278,-0.031 -0.516,-0.031 h -1.062 v 3.11 z m 0.938,-3.907 h 1.984 c 0.426,0 0.754,-0.039 0.984,-0.125 0.239,-0.093 0.422,-0.234 0.547,-0.422 0.125,-0.195 0.188,-0.41 0.188,-0.64 0,-0.332 -0.121,-0.602 -0.36,-0.813 -0.242,-0.218 -0.621,-0.328 -1.14,-0.328 h -2.203 z" /><path
         id="path78"
         style="fill:#000000;fill-opacity:1;fill-rule:nonzero;stroke:none"
         d="m 139.109,85.121 h 0.859 v 7 h -0.859 z" /><path
         id="path80"
         style="fill:#000000;fill-opacity:1;fill-rule:nonzero;stroke:none"
         d="m 143.945,94.883 v -0.531 c -0.273,0.418 -0.668,0.625 -1.187,0.625 -0.336,0 -0.641,-0.094 -0.922,-0.282 -0.281,-0.187 -0.5,-0.445 -0.656,-0.781 -0.157,-0.332 -0.235,-0.711 -0.235,-1.141 0,-0.425 0.067,-0.812 0.203,-1.156 0.145,-0.344 0.36,-0.601 0.641,-0.781 0.281,-0.188 0.594,-0.281 0.938,-0.281 0.257,0 0.488,0.058 0.687,0.172 0.195,0.105 0.359,0.242 0.484,0.406 v -2.094 h 0.719 v 5.844 z m -2.265,-2.11 c 0,0.543 0.113,0.95 0.343,1.219 0.227,0.262 0.5,0.391 0.813,0.391 0.312,0 0.578,-0.125 0.797,-0.375 0.219,-0.258 0.328,-0.649 0.328,-1.172 0,-0.582 -0.117,-1.008 -0.344,-1.281 -0.219,-0.27 -0.492,-0.407 -0.812,-0.407 -0.325,0 -0.594,0.133 -0.813,0.391 -0.211,0.262 -0.312,0.672 -0.312,1.234 z" /><path
         id="path82"
         style="fill:#000000;fill-opacity:1;fill-rule:nonzero;stroke:none"
         d="m 60.508,47.27 v 0.828 h -4.625 c -0.012,-0.207 0.019,-0.407 0.094,-0.594 0.125,-0.313 0.316,-0.617 0.578,-0.922 0.257,-0.312 0.633,-0.672 1.125,-1.078 0.758,-0.625 1.269,-1.117 1.531,-1.484 0.269,-0.364 0.406,-0.708 0.406,-1.032 0,-0.332 -0.125,-0.613 -0.375,-0.843 -0.242,-0.239 -0.554,-0.36 -0.937,-0.36 -0.418,0 -0.75,0.125 -1,0.375 -0.25,0.242 -0.375,0.578 -0.375,1.016 l -0.891,-0.078 c 0.063,-0.664 0.289,-1.172 0.688,-1.516 0.394,-0.344 0.925,-0.516 1.593,-0.516 0.664,0 1.196,0.188 1.594,0.563 0.395,0.375 0.594,0.836 0.594,1.375 0,0.281 -0.059,0.558 -0.172,0.828 -0.117,0.273 -0.309,0.559 -0.578,0.859 -0.274,0.305 -0.715,0.715 -1.328,1.235 -0.512,0.429 -0.84,0.719 -0.985,0.875 -0.148,0.156 -0.273,0.312 -0.375,0.469 z" /><path
         id="path84"
         style="fill:#000000;fill-opacity:1;fill-rule:nonzero;stroke:none"
         d="m 65.434,43.02 h 0.875 c -0.219,0.71 -0.422,1.558 -0.61,2.546 0.219,1.231 0.422,2.075 0.61,2.532 h -0.844 c -0.137,-0.321 -0.242,-0.629 -0.313,-0.922 -0.273,0.687 -0.824,1.031 -1.656,1.031 -0.637,0 -1.152,-0.234 -1.547,-0.703 -0.387,-0.477 -0.578,-1.129 -0.578,-1.953 0,-0.844 0.191,-1.492 0.578,-1.953 0.395,-0.457 0.914,-0.688 1.563,-0.688 0.394,0 0.718,0.086 0.968,0.25 0.25,0.156 0.485,0.399 0.704,0.719 0.019,-0.102 0.101,-0.391 0.25,-0.859 z m -1.782,0.609 c -0.418,0 -0.746,0.168 -0.984,0.5 -0.23,0.324 -0.344,0.797 -0.344,1.422 0,0.605 0.11,1.086 0.328,1.437 0.227,0.344 0.547,0.516 0.953,0.516 0.395,0 0.723,-0.172 0.985,-0.516 0.258,-0.343 0.39,-0.832 0.39,-1.468 0,-0.625 -0.125,-1.094 -0.375,-1.407 -0.242,-0.32 -0.558,-0.484 -0.953,-0.484 z" /><path
         id="path86"
         style="fill:#000000;fill-opacity:1;fill-rule:nonzero;stroke:none"
         d="m 138.535,138.398 h 0.875 c -0.219,0.711 -0.422,1.559 -0.609,2.547 0.219,1.231 0.422,2.075 0.609,2.532 h -0.844 c -0.136,-0.321 -0.242,-0.629 -0.312,-0.922 -0.274,0.687 -0.824,1.031 -1.656,1.031 -0.637,0 -1.153,-0.234 -1.547,-0.703 -0.387,-0.477 -0.578,-1.129 -0.578,-1.953 0,-0.844 0.191,-1.492 0.578,-1.953 0.394,-0.457 0.914,-0.688 1.562,-0.688 0.395,0 0.719,0.086 0.969,0.25 0.25,0.156 0.484,0.399 0.703,0.719 0.02,-0.102 0.102,-0.391 0.25,-0.86 z m -1.781,0.61 c -0.418,0 -0.746,0.168 -0.984,0.5 -0.231,0.324 -0.344,0.797 -0.344,1.422 0,0.605 0.109,1.086 0.328,1.437 0.226,0.344 0.547,0.516 0.953,0.516 0.395,0 0.723,-0.172 0.984,-0.516 0.258,-0.344 0.391,-0.832 0.391,-1.469 0,-0.625 -0.125,-1.093 -0.375,-1.406 -0.242,-0.32 -0.559,-0.484 -0.953,-0.484 z" /></g></g></svg>